<svg width="89" height="89" viewBox="0 0 89 89" fill="none" xmlns="http://www.w3.org/2000/svg">
<g clip-path="url(#clip0_2_412)">
<path d="M24.3169 26.0715C32.0065 17.5948 44.1469 14.7561 54.8669 18.9275C65.5859 23.1017 72.6724 33.4239 72.6989 44.9021C72.7186 50.4981 71.0341 55.9675 67.8696 60.5829C64.7051 65.1982 60.2105 68.7408 54.9836 70.7395C44.2833 74.8294 32.1291 71.8982 24.4009 63.3632" stroke="#8424DE" stroke-width="0.919146" stroke-linecap="round" stroke-linejoin="round"/>
</g>
<path fill-rule="evenodd" clip-rule="evenodd" d="M44.9956 69.1328C58.4478 69.1501 69.3669 58.2589 69.3842 44.8067C69.4014 31.3545 58.5103 20.4354 45.0581 20.4181C36.1376 20.4067 28.331 25.192 24.0786 32.3401L17.0092 32.331C10.41 32.3226 5.05348 37.6654 5.04502 44.2646C5.03655 50.8638 10.3794 56.2203 16.9785 56.2288L23.5293 56.2372C27.6242 63.9014 35.6982 69.1209 44.9956 69.1328Z" fill="#8424DE"/>
<path d="M53.5756 36.5567L35.8368 43.3709C34.6262 43.8554 34.6323 44.5304 35.6129 44.8326L40.1631 46.2585L50.7036 39.627C51.202 39.3246 51.6568 39.4882 51.2824 39.8197L42.7395 47.5098L42.7375 47.5098L42.7395 47.5108L42.4195 52.2024C42.8795 52.203 43.0828 51.9922 43.3411 51.7436L45.5548 49.5964L50.1495 52.9993C50.9969 53.4674 51.6062 53.2282 51.8185 52.2164L54.8557 37.9923C55.1663 36.7537 54.3851 36.1917 53.5756 36.5567Z" fill="#F7F7F7"/>
<defs>
<clipPath id="clip0_2_412">
<rect width="62.1791" height="62.1791" fill="white" transform="translate(44.8765 88.7632) rotate(-134.926)"/>
</clipPath>
</defs>
</svg>
