<svg width="16" height="14" viewBox="0 0 16 14" fill="none" xmlns="http://www.w3.org/2000/svg">
<path d="M8.13987 12.8908C9.55707 12.8908 10.9424 12.5421 12.1208 11.8888C13.2992 11.2355 14.2176 10.307 14.7599 9.22061C15.3023 8.13423 15.4442 6.93881 15.1677 5.78551C14.8912 4.63222 14.2088 3.57285 13.2066 2.74137C12.2045 1.90989 10.9278 1.34365 9.53779 1.11424C8.14782 0.884837 6.70707 1.00258 5.39775 1.45257C4.08842 1.90256 2.96933 2.6646 2.18197 3.64232C1.39461 4.62003 0.974365 5.76951 0.974365 6.9454C0.974365 7.92838 1.26099 8.85454 1.77053 9.6717L0.974365 12.8908L4.85409 12.2302C5.83815 12.6523 6.95597 12.8908 8.13987 12.8908Z" stroke="#545454" stroke-width="1.09473" stroke-linecap="round" stroke-linejoin="round"/>
</svg>
