<svg width="14" height="22" viewBox="0 0 14 22" fill="none" xmlns="http://www.w3.org/2000/svg">
<path d="M13.3908 1.3327C13.3908 1.17616 13.3286 1.02603 13.2179 0.915333C13.1072 0.80464 12.9571 0.742454 12.8005 0.742454H9.84929C8.3632 0.668426 6.90821 1.1856 5.80224 2.18098C4.69627 3.17635 4.02922 4.56901 3.94684 6.05466V9.24199H0.99561C0.839067 9.24199 0.688936 9.30417 0.578244 9.41487C0.467551 9.52556 0.405365 9.67569 0.405365 9.83223V12.9015C0.405365 13.0581 0.467551 13.2082 0.578244 13.3189C0.688936 13.4296 0.839067 13.4918 0.99561 13.4918H3.94684V21.401C3.94684 21.5576 4.00902 21.7077 4.11972 21.8184C4.23041 21.9291 4.38054 21.9913 4.53708 21.9913H8.07855C8.2351 21.9913 8.38523 21.9291 8.49592 21.8184C8.60661 21.7077 8.6688 21.5576 8.6688 21.401V13.4918H11.7617C11.8929 13.4936 12.0211 13.4517 12.1258 13.3726C12.2306 13.2935 12.306 13.1817 12.3401 13.055L13.1901 9.98569C13.2136 9.89848 13.2167 9.80704 13.1993 9.71842C13.1819 9.6298 13.1444 9.54635 13.0896 9.47451C13.0349 9.40267 12.9644 9.34434 12.8836 9.30403C12.8028 9.26372 12.7138 9.24249 12.6234 9.24199H8.6688V6.05466C8.69816 5.76246 8.83538 5.4917 9.05367 5.29524C9.27195 5.09879 9.55562 4.99075 9.84929 4.99222H12.8005C12.9571 4.99222 13.1072 4.93003 13.2179 4.81934C13.3286 4.70865 13.3908 4.55852 13.3908 4.40197V1.3327Z" fill="#212025"/>
</svg>
