<svg width="13" height="15" viewBox="0 0 13 15" fill="none" xmlns="http://www.w3.org/2000/svg">
<path d="M6.87769 12.923L3.13969 14.531C2.60102 14.763 2.08935 14.7183 1.60469 14.397C1.12002 14.0757 0.877686 13.6273 0.877686 13.052V1.615C0.877686 1.155 1.03202 0.771 1.34069 0.463C1.64869 0.154333 2.03269 0 2.49269 0H11.2627C11.7227 0 12.107 0.154333 12.4157 0.463C12.7237 0.771 12.8777 1.155 12.8777 1.615V13.052C12.8777 13.6273 12.6354 14.0757 12.1507 14.397C11.666 14.7183 11.1544 14.763 10.6157 14.531L6.87769 12.923ZM6.87769 11.8L11.0127 13.585C11.2174 13.6743 11.4127 13.655 11.5987 13.527C11.7847 13.399 11.8777 13.2257 11.8777 13.007V1.616C11.8777 1.46267 11.8137 1.32167 11.6857 1.193C11.557 1.06433 11.416 1 11.2627 1H2.49269C2.33935 1 2.19835 1.064 2.06969 1.192C1.94169 1.32067 1.87769 1.46167 1.87769 1.615V13.008C1.87769 13.226 1.97069 13.399 2.15669 13.527C2.34269 13.655 2.53802 13.6743 2.74269 13.585L6.87769 11.8ZM6.87769 1H1.87769H11.8777H6.87769Z" fill="#545454"/>
</svg>
