<svg width="40" height="38" viewBox="0 0 40 38" fill="none" xmlns="http://www.w3.org/2000/svg">
<path d="M1.0371 14.5348L1.33392 14.9284C0.740288 14.9129 0.118725 14.8615 0 14.6344C0 14.6235 0.00349194 14.6126 0.00698386 14.6017C0.338717 14.5239 0.623309 14.5193 1.0371 14.5348ZM4.19031 15.7327L4.33348 16.1217L3.99825 16.1341L4.07857 15.7359C4.11588 15.7359 4.15316 15.7359 4.19031 15.7327ZM5.33217 18.572C5.03536 18.8147 4.80663 18.9764 4.63029 19.3452C4.38586 19.1662 4.2584 18.8115 4.17983 18.4148C4.09254 17.9823 4.0646 17.5016 3.99825 17.1422L4.01921 16.9587L4.36316 16.9369L5.23963 18.4148L5.33217 18.572ZM4.88869 14.9284C4.93223 14.6628 4.97705 14.3972 5.02313 14.1319L5.13662 14.1257C5.05282 14.3933 4.96901 14.6608 4.88869 14.9284ZM4.6495 11.316L6.22086 11.6956C6.2183 11.7163 6.21597 11.7371 6.21388 11.7579C5.48232 12.2401 4.80663 12.4517 4.44347 13.3229L4.58141 11.3845L4.6495 11.316ZM6.11611 9.30913C6.01484 10.2115 6.15801 10.6097 6.33435 11.1698C6.61371 11.3471 6.72545 11.4545 6.63466 11.7174C6.16325 11.5089 5.6639 11.2911 4.94107 11.3254C4.92345 11.3073 4.90599 11.2892 4.88869 11.2709C5.09123 10.5599 5.48581 10.1228 5.79136 9.55961L6.11785 9.30758L6.11611 9.30913ZM8.37538 8.10811L8.44347 8.10344C8.22698 8.76929 8.13968 10.3048 7.7608 10.9146C6.86512 10.5366 6.88258 8.89842 7.88477 8.25124L8.37538 8.10811ZM7.54081 13.0398L8.29507 13.7694C7.99825 14.5815 7.4378 15.1929 7.20035 16.1341L6.75513 16.103C6.37451 15.1556 7.32606 13.6123 7.48843 12.9215L8.18682 12.9931C8.27412 13.1876 8.35792 13.382 8.44347 13.5781L7.54081 13.0398ZM9.60454 8.10189C9.52772 8.89064 9.72326 9.2998 9.77564 9.90965C9.33217 10.1119 8.88695 10.311 8.44347 10.5117C8.52584 9.69526 8.74537 8.89446 9.09472 8.13611L9.60454 8.10189ZM10.1213 6.90397L10.2209 6.89775L10.0707 7.28202L9.77564 7.29913L10.0026 7.0611L10.1213 6.90397ZM10.2209 10.5833L8.88695 11.3145C8.91488 10.8726 9.54692 10.2768 10.0759 10.1119L10.1982 10.171L10.2209 10.5833ZM11.1113 7.81719C11.0292 8.22479 10.9489 8.63084 10.8704 9.03844L10.6207 9.17845L10.488 9.30758C10.2471 9.00577 10.1859 8.26524 10.2383 7.70206L11.1113 7.81719ZM11.9983 6.89931C11.9983 6.91486 11.9948 6.92731 11.993 6.93976L11.6526 7.23068C11.4256 7.30846 11.3976 7.30535 11.1113 7.29602C11.148 7.16378 11.1899 7.03154 11.23 6.89931H11.9983ZM12.8887 5.29379L12.4906 6.09499L11.1113 6.00632L11.1165 5.94098C11.684 5.70762 12.1816 5.4307 12.8869 5.29224L12.8887 5.29379ZM12.1694 7.37847L12.316 7.30068L12.4435 7.70206L11.9983 7.62428L12.1694 7.37847ZM13.3322 8.56549C12.8031 8.74907 12.0716 8.69773 11.6473 8.90775C11.6168 8.74694 11.586 8.58618 11.5548 8.42548L11.8306 8.10344C12.2794 8.25902 12.7281 8.4177 13.175 8.57483L13.3322 8.56549ZM12.1955 9.28735L11.5914 9.30758C11.5775 9.25157 11.567 9.19557 11.5548 9.138C11.979 8.98399 12.6914 8.96999 13.3322 8.9062L12.6565 9.23757L12.1955 9.28735ZM13.7756 9.28735C13.2676 9.40092 12.7804 9.80075 12.447 10.1119C12.3824 9.74785 13.1663 9.10689 13.5417 8.9062C13.7076 9.03844 13.725 9.02444 13.7756 9.28735ZM14.6661 4.49103L14.6591 4.55326L14.1248 4.84107L13.3322 4.89241L13.3392 4.83018L14.6661 4.49103ZM13.9467 5.69517L13.7756 5.46959C14.1772 5.16933 15.0624 5.33424 15.5548 5.37936L13.9467 5.69517ZM17.9241 4.51282C18.6661 4.56727 19.3453 4.72284 19.8621 5.01065L19.9983 5.00287L19.9162 5.10555L19.2056 5.29224C18.7778 5.23934 18.3501 5.18334 17.9241 5.12889L15.1096 4.77262L15.1165 4.72128C16.0354 4.52683 16.9819 4.45552 17.9241 4.51282ZM20.88 4.30124L20.7228 4.49103C20.2968 4.46388 19.8895 4.32413 19.553 4.08966L20.8869 4.24056L20.88 4.30124ZM23.2475 5.7854L23.6159 5.66094L23.9983 5.95342C23.9459 6.2879 23.5845 6.56171 23.3069 6.88686L23.0938 6.89931C22.5142 6.04365 21.7826 5.10866 20.4993 4.77885L20.4435 4.67772L20.962 4.49103C21.8333 4.76173 22.5596 5.17245 23.368 5.40892C23.4727 5.6345 23.4413 5.55827 23.2475 5.7854ZM24.3195 7.68806L24.2182 7.59939L23.9983 7.61339L24.3649 7.30224L24.3195 7.68806ZM24.7124 12.1188C25.313 12.5824 25.4666 13.2545 25.2169 14.1257C24.9585 13.6092 24.7019 13.0911 24.4417 12.5746C24.529 12.4595 24.6111 12.3444 24.6966 12.2292C24.7019 12.1919 24.7054 12.1546 24.7124 12.1188ZM24.8869 8.50949L24.88 8.58416L24.5639 8.9062L24.4417 8.69306C24.632 8.3897 24.4941 8.55305 24.7438 8.52193L24.8869 8.50949ZM25.2571 8.50482L26.6643 8.96998C26.6621 9.0116 26.658 9.05311 26.6521 9.09444C26.5334 9.16756 26.4147 9.23757 26.2959 9.30758L24.8869 8.84397L24.8992 8.71796L25.2571 8.50482ZM27.9983 10.1119L27.2178 9.64984L27.1096 9.46315C27.4483 9.27646 27.3994 9.2858 27.7573 9.34803C27.8359 9.60317 27.9179 9.85831 27.9983 10.1119ZM28.4417 9.95943L28.2846 10.1119C28.096 10.0248 28.0629 9.91431 27.9983 9.70896L28.4051 9.86764L28.4417 9.95943ZM28.11 8.80974L27.9983 8.81752C28.1205 8.71329 28.2427 8.60905 28.3684 8.50638C28.2811 8.6075 28.1938 8.70862 28.11 8.80974ZM30.2209 10.8291L30.0026 10.9146C29.6059 10.7166 29.2096 10.518 28.8136 10.3188C28.6893 10.1686 28.5654 10.0182 28.4417 9.86764C29.0581 9.46315 29.0808 9.93298 29.6622 10.1897L30.2209 10.8291ZM30.6643 11.1838L30.2209 11.0391L30.488 10.9146L30.6643 11.1838ZM30.1231 11.831C30.2837 12.1188 30.2837 12.0379 30.6643 11.9943L29.9817 12.5202L29.3304 11.4125L29.3392 11.344C29.8193 11.2522 29.9729 11.4063 30.4426 11.4685L30.6224 11.7267L30.1231 11.831ZM30.2209 12.5513L31.1096 12.1188C30.9315 12.4766 30.6993 12.6602 30.4251 12.9215L30.2209 12.5513ZM31.9983 14.0837C31.7573 14.2688 31.6002 14.3279 31.1445 14.3621L31.5111 14.3979L31.5041 14.4555L30.2523 14.9284L30.2209 13.4972L31.0834 12.5871L31.2405 12.5202L31.9983 14.0837ZM31.553 11.887C34.0079 11.2771 33.533 12.4377 32.4382 13.3229C32.1414 12.8453 31.8464 12.3661 31.553 11.887ZM33.7756 12.1188C32.8712 15.9054 32.6966 16.1123 29.498 17.7396C29.4444 17.6631 29.3885 17.5879 29.3304 17.5141L29.4439 17.0909C31.5303 16.562 32.7158 15.5881 32.5919 13.3836L33.6377 12.1857L33.7756 12.1188ZM33.8839 12.1188C33.849 11.9881 33.8141 11.8574 33.7756 11.7267L34.1074 11.7174L33.8839 12.1188ZM28.4417 15.8012L28.4732 15.3827L28.5011 15.0249L28.8084 14.9331C28.8241 14.9331 28.8381 14.93 28.852 14.9284C28.9393 15.4029 28.852 15.753 28.6774 16.1341C28.5273 16.0486 28.4976 16.0128 28.4417 15.8012ZM26.6643 19.314L26.6713 19.244L27.2545 18.001L27.3767 17.7396L28.4033 17.8019C28.419 17.8703 28.4295 17.9372 28.4347 18.001C28.4801 18.4739 28.2968 18.852 28.1083 19.3452L26.6643 19.314ZM27.1096 20.9258L27.1218 20.3035L27.1392 20.1479L27.89 20.1977L27.9983 20.1899C27.8254 20.4435 27.6543 20.6971 27.4849 20.9522L27.1096 20.9258ZM26.6696 18.3277L26.715 18.3075L27.0694 18.1441L27.1096 18.141L27.0572 18.3075L26.8494 18.9438L26.6643 18.3775L26.6696 18.3277ZM25.9764 20.3268L25.7756 20.1479C25.9712 20.2693 25.8437 20.151 25.9764 20.3268ZM24.8869 19.8492C25.1366 19.7092 25.4072 19.7528 25.7774 19.7559L25.6674 20.0779C25.3619 20.1868 25.3182 20.1464 24.9743 20.1137L24.8869 19.8492ZM25.4317 21.352L25.7756 22.077C25.5103 22.2373 25.2431 22.3959 24.9777 22.5577C24.7403 22.2668 24.9987 21.4532 25.4317 21.352ZM24.5535 18.8318L24.4417 18.8395L24.5884 18.5424L24.5535 18.8318ZM25.8333 18.9438L25.7756 18.9111L25.9712 18.544L26.0358 18.5424L26.2209 18.9282L25.8333 18.9438ZM28.9114 13.7243L28.8869 13.589C29.0039 13.4614 29.079 13.382 29.2798 13.3245L29.3322 13.5609C29.2449 13.6123 29.1576 13.6621 29.072 13.715L28.9114 13.7243ZM28.8869 14.7044C28.8066 14.7993 28.6635 14.8522 28.5622 14.9284L28.4417 12.9215L28.8869 14.7044ZM28.0716 17.3958C28.3649 17.2496 28.4068 17.3849 28.4417 17.7381H27.553L27.5688 17.6136L28.0716 17.3958ZM27.6351 16.2866L27.8359 16.1341L27.9983 16.3924L27.9232 16.5355L27.553 16.4966L27.6351 16.2866ZM27.553 17.3507L27.0904 17.7396L26.7883 17.6945L26.6661 17.7054C26.7359 17.5825 26.8093 17.4596 26.8808 17.3383L27.553 17.3507ZM25.8769 17.122C25.6918 17.0069 25.8245 17.0224 25.7896 16.9353L25.8769 17.122ZM27.2772 15.3298L25.7756 14.636C25.8455 13.7181 25.9712 12.6633 25.8699 11.7174C27.0275 12.0908 28.0663 13.7694 27.2772 15.3298ZM26.2209 15.3298C26.5893 15.5041 26.5701 15.6627 27.0816 15.8028C27.1707 16.0999 27.0345 16.2181 26.8215 16.5339L26.2767 16.5153C26.165 15.9863 26.2872 15.683 26.2209 15.3298ZM26.3221 17.9263C26.1353 17.8112 26.2697 17.8268 26.2348 17.7396L26.3221 17.9263ZM29.3304 14.0619L29.3357 13.9872L29.7372 13.7243C29.8071 14.135 29.7809 14.8195 29.6761 15.3298C29.4387 15.1649 29.395 14.4679 29.3304 14.0619ZM29.3304 15.3298C29.4212 15.196 29.512 15.0622 29.5993 14.9284L29.4422 15.3236L29.3304 15.3298ZM31.9232 14.1303L31.9983 14.1257C32.0192 15.6643 30.9542 15.9443 29.5539 16.5215L29.3304 16.5355L30.2034 14.9238L31.9232 14.1303ZM29.2868 11.1247C29.3007 11.1651 29.3165 11.204 29.3287 11.2445L29.2187 11.316L28.8852 10.9146L29.2868 11.1247ZM28.8852 11.7936L28.8974 11.7236C28.93 11.7213 28.9626 11.7192 28.9952 11.7174L29.3304 12.1188C29.072 12.0099 29.0301 11.9834 28.8852 11.7936ZM29.3287 12.8204L28.7298 13.3229L27.443 11.6583L25.7739 10.367L26.1406 10.1119C26.9489 10.423 28.3632 11.0158 28.6478 11.7563C28.7403 11.9974 28.4208 12.1966 28.6373 12.3973C28.8957 12.6368 29.1541 12.4657 29.3304 12.8189L29.3287 12.8204ZM25.5784 15.3298L25.7145 15.378L25.7739 16.5355L25.5661 16.4919C25.3706 16.3628 25.2344 15.7654 25.4125 15.5056L25.5784 15.3298ZM24.5936 17.3429L24.7368 17.3383L24.8852 17.6525L24.6582 17.7303L24.44 17.7396C24.4924 17.6074 24.5447 17.4752 24.5936 17.3429ZM24.1886 23.7619L23.9965 23.1754C24.2706 23.1054 24.543 23.0353 24.8171 22.9622L24.8869 22.9591C24.8834 22.9772 24.8804 22.9953 24.8782 23.0136L24.1886 23.7619ZM23.5513 22.1564C23.6333 21.9199 23.691 21.8841 23.8394 21.7534L23.9616 21.797L23.9965 21.8997L23.7224 22.1392L23.5513 22.1564ZM23.7608 22.5577L23.5513 22.3524L23.9965 22.1564L23.8813 22.55L23.7608 22.5577ZM23.2929 24.3779C23.23 24.3344 23.1707 24.2893 23.1078 24.2426L23.244 24.2348L23.9302 23.7619L23.9965 24.2442L23.471 24.5646L23.2929 24.3779ZM23.3278 28.9767C22.2575 29.0171 21.6168 28.7744 20.7438 28.706L19.7433 26.9433L19.5513 26.766C21.2309 26.5886 22.2872 25.8668 23.5321 25.3674C23.9721 25.7408 24.969 27.6419 24.0908 28.4835C23.8813 28.7713 23.6473 28.8009 23.3278 28.9767ZM18.7324 26.9962L19.134 26.9729C19.7399 27.3354 20.1519 27.9841 20.4417 28.58L18.6626 28.121C18.7953 27.7197 18.8512 27.3121 18.7324 26.9962ZM17.4544 25.481L19.4588 24.966L22.6085 25.2398L22.6643 25.3814C21.7268 25.7579 20.66 26.0752 19.5845 26.5606C18.4199 26.6431 18.1388 26.2557 17.3322 26.0006L17.4544 25.481ZM17.3304 27.3727L17.3706 27.0242L18.1371 26.9729C18.1999 27.2763 18.2663 27.4458 18.172 27.7757L17.3304 27.3727ZM16.44 28.0012L16.7385 27.855C17.1052 27.6388 17.3793 27.9266 17.7739 28.0401L17.6168 28.177L16.44 28.0012ZM17.3042 27.3743C17.2074 27.3359 17.1108 27.297 17.0144 27.2576L16.8852 26.9729L17.3304 26.9978L17.3042 27.3743ZM15.9965 27.3743L16.4417 27.715C16.4417 27.925 16.4208 27.9017 16.3667 28.177L15.9965 27.3743ZM14.8442 25.8699C15.2615 25.7563 15.8167 25.7812 16.4417 25.7688L15.8603 26.1701L14.6643 26.0659L14.8442 25.8699ZM13.7756 5.74962C14.6015 5.04643 16.6722 5.25645 17.1907 5.70295L17.3304 5.69206C16.6408 6.26612 15.5722 6.33146 14.9158 6.89931C14.4007 6.59438 13.9747 6.39836 13.7756 5.74962ZM18.3151 6.89931L18.6643 7.25246C18.3536 7.26801 18.0271 7.28513 17.7006 7.31002C16.9655 7.36603 16.2392 7.46404 15.7311 7.69895L15.6648 7.70206C15.628 7.65076 15.5914 7.59942 15.5548 7.54805C16.3888 7.15822 17.3095 6.93823 18.2505 6.90397L18.3151 6.89931ZM20.0471 4.89241C20.6216 5.40581 21.4788 5.71073 21.7756 6.49793C20.5709 5.99854 18.7167 6.00632 17.7774 5.21134C18.605 5.36847 19.3103 5.30935 20.0471 4.89241ZM20.4435 7.70206L22.0917 7.90431L22.2209 7.89497L20.8992 8.9062C20.6897 8.53438 20.6408 8.03032 20.4435 7.70206ZM22.5613 9.41959L22.2209 9.37292L22.6643 9.30758L22.5613 9.41959ZM22.2209 8.4597L22.6277 8.10344L22.6643 8.50482L22.3693 8.44726L22.2209 8.4597ZM23.0275 21.7456L22.832 21.7534L22.6643 21.6134L22.7935 21.4625L23.1078 21.3536L23.0275 21.7456ZM22.6731 22.48C22.7254 22.4239 22.7813 22.3679 22.8372 22.3119L22.8512 22.1564L23.1096 22.522L22.6643 22.5577L22.6731 22.48ZM22.4967 23.7619L22.2209 23.4663L23.1096 23.3605L22.6853 23.7494L22.4967 23.7619ZM22.6643 24.966L21.7756 24.8711L22.4042 24.5646L22.6643 24.966ZM22.041 23.8334L22.2209 23.9859L21.5766 24.1321L20.8869 24.1633L21.8472 23.7619L22.041 23.8334ZM19.5548 6.49793C20.0733 6.51037 20.6216 6.62705 20.8869 6.89931C20.529 6.86819 19.8848 6.91953 19.7224 6.67373L19.5548 6.49793ZM20.0052 8.10344C20.2584 8.30102 20.3474 8.53438 20.3021 8.9062C19.911 8.78641 20.0122 8.40525 20.0052 8.10344ZM20.4417 10.6346L20.4574 10.5662C21.3426 10.395 21.533 10.6688 21.1296 10.9146C20.7804 10.8711 20.6216 10.7544 20.4417 10.6346ZM21.5818 20.9507L21.7756 20.9942C21.7731 21.0129 21.7707 21.0315 21.7687 21.0502L21.3322 21.352L21.5138 20.9553L21.5818 20.9507ZM21.3374 11.1589L21.6691 10.9146L21.7756 11.316L21.3322 11.2289L21.3374 11.1589ZM22.6643 21.8934L21.5906 22.1439L21.3322 22.1548C21.3322 22.1424 21.3357 22.1284 21.3392 22.1159C21.7407 22.0443 21.9991 21.9261 22.2366 21.7534L22.6137 21.8157L22.6643 21.8934ZM21.8979 20.9507L21.7756 20.7282L22.0812 20.5493L22.2209 20.6162L22.0463 20.9398L21.8979 20.9507ZM19.1096 23.7276L19.6386 23.3605L21.2763 23.485L21.3322 23.5939L20.2252 24.1633C19.8149 24.1026 19.4605 23.9408 19.2475 23.7183L19.1096 23.7276ZM18.2872 23.7619L19.1078 24.1633L17.7756 23.9532C17.9467 23.891 18.1161 23.8257 18.2872 23.7619ZM18.2209 24.5817C18.219 24.6139 18.2172 24.646 18.2156 24.6782L17.9625 24.8027L17.7756 24.8244L17.7826 24.728C17.9764 24.4993 17.945 24.5755 18.2209 24.5817ZM16.1257 8.2419C16.0836 8.20164 16.0411 8.16171 15.9983 8.12211C16.44 7.90742 17.1366 7.80474 17.821 7.75651C18.385 7.71451 18.9402 7.70984 19.3383 7.70206L19.5548 8.9062C18.9734 8.85019 18.4199 8.78174 17.821 8.7584C17.3036 8.73555 16.7849 8.75221 16.2706 8.80819C16.2233 8.61923 16.175 8.43047 16.1257 8.2419ZM16.7787 24.3515L16.887 24.5226L16.7822 24.882L15.5548 24.966C15.6857 24.6082 15.8813 24.4355 16.0925 24.1633L16.7787 24.3515ZM15.2632 22.9591C14.7045 22.9311 13.9398 22.5671 13.7756 22.1564L15.5548 22.5593L15.2632 22.9591ZM15.8883 22.9373L15.5548 22.9591L15.5653 22.8627L15.9354 22.5577C15.9179 22.6838 15.904 22.8098 15.8883 22.9373ZM14.6661 8.2559L15.2073 8.10344L15.5548 8.49237L15.1881 8.50482L14.6661 8.2559ZM14.6591 25.4934C14.6294 25.5805 14.6032 25.6692 14.5753 25.7579C14.5321 25.7599 14.489 25.7635 14.4461 25.7688C14.3713 25.6349 14.2962 25.5011 14.2209 25.3674L14.6661 25.4078L14.6591 25.4934ZM14.9053 23.7619L15.9424 23.9486L15.9983 24.073L15.1934 24.966L14.2209 24.8384L14.9053 23.7619ZM22.6643 11.1791L22.8651 10.9162L22.9385 10.9146L23.4972 11.0391L23.553 11.1107L22.9297 11.316C22.8414 11.2702 22.7529 11.2246 22.6643 11.1791ZM23.8673 9.88164L23.553 9.71051C23.8725 9.81475 23.6892 9.69651 23.8673 9.88164ZM23.766 11.7174L23.553 11.5556L23.9983 11.316L23.766 11.7174ZM23.553 14.5271L24.2444 14.6795C24.4313 14.7449 24.426 14.762 24.4417 14.9284C24.1449 14.8273 23.6491 14.7573 23.553 14.5271ZM23.6229 13.4334L23.7172 13.3245L23.9983 13.7243L23.553 13.6465L23.6229 13.4334ZM14.6189 26.6431L14.6661 26.7489L14.0672 26.9527L13.7756 26.9729L13.7826 26.9185L13.9869 26.6338C14.2698 26.5171 14.2767 26.5933 14.6189 26.6431ZM13.3322 6.49637C13.7198 6.75462 13.821 7.07199 13.7599 8.10344C13.505 7.81252 13.3496 7.19334 13.3322 6.49637ZM13.5871 5.69517L13.5557 5.98609L13.3339 6.00009L13.5871 5.69517ZM13.3322 6.09655C13.3199 6.19301 13.3112 6.28946 13.2972 6.38592L12.8869 6.31902L13.2257 6.10277L13.3322 6.09655ZM13.3322 29.3827L13.5522 27.3385L15.1096 26.9729L13.4718 29.3081L13.3322 29.3827ZM13.4422 23.8879L13.6814 23.7619C13.8996 23.9921 13.7041 24.3235 13.498 24.5646C13.3269 24.4215 13.3077 24.3313 13.3531 24.0061L13.4422 23.8879ZM11.9983 23.6919L12.5098 22.9591L13.3304 23.3885C13.0511 23.7805 12.7665 24.1726 12.4836 24.5646C12.2287 24.3624 12.0716 24.0637 11.9983 23.6919ZM11.9983 26.836L12.8189 26.1701L13.2047 26.2013L13.3322 26.3879C13.2973 26.584 13.2658 26.7784 13.2344 26.9729L11.9983 26.836ZM10.6661 26.2915L11.6438 25.7688L12.3876 25.873L12.4435 25.9648L11.6595 26.5715C11.2684 26.5357 11.0083 26.4424 10.804 26.2837L10.6661 26.2915ZM10.5351 25.5152L10.8931 25.3674L11.0467 25.3969L11.1096 25.4623L10.0742 25.7688L9.77739 25.6754L10.5351 25.5152ZM9.33217 25.1387L9.59406 24.574C10.0794 24.518 10.1947 24.7311 10.5596 24.8664L10.6643 25.0096L10.1213 25.3409L9.67962 25.3674L9.33217 25.1387ZM8.44173 26.7862L9.08948 25.7688C9.51899 25.7688 9.57137 25.7999 9.74771 26.0021C9.82628 26.1204 9.75818 26.0566 9.58708 26.083L9.54692 26.4331L10.2209 26.5264C10.0882 26.8204 10.0672 26.7815 9.86818 26.9682C9.20471 26.9994 8.90441 26.8873 8.44173 26.7862ZM7.69446 25.3674L8.82409 25.6708L8.88695 25.7905L8.16238 26.5715L7.10956 26.2635L7.69446 25.3674ZM3.34177 24.2815L3.35574 24.1617L3.98603 24.5942L4.04016 24.7093C2.72894 25.6116 4.73505 28.552 7.01702 26.6462L7.99825 26.9978C7.62113 27.5968 6.97337 27.8332 6.2907 28.1724C4.65823 28.2937 2.37451 25.9181 3.34177 24.2815ZM4.86425 24.6922L4.88869 24.9645C4.76648 24.882 4.64426 24.8027 4.52554 24.7202L4.44347 24.5631L4.86425 24.6922ZM7.10956 26.3973L6.29769 26.9573C4.69838 27.1067 4.05063 26.1204 3.99825 24.9085L4.31078 24.5724L4.44697 24.5631C5.25185 25.1278 5.96421 25.9897 7.05718 26.2744L7.10956 26.3973ZM5.56089 20.5477C5.41598 20.4544 5.40725 20.4077 5.33392 20.249L5.63771 19.2191L5.99214 18.9422L6.22086 19.2409L5.56089 20.5477ZM5.33392 20.8947L6.03405 19.4183L6.17722 19.3436C6.50022 19.8508 6.96814 20.081 7.10956 20.7702L6.055 21.7519C5.72708 21.5342 5.4762 21.2372 5.33217 20.8962L5.33392 20.8947ZM6.66608 22.1237L7.55653 21.3505L7.99825 22.1548C7.55425 22.1429 7.11019 22.1325 6.66608 22.1237ZM8.88695 14.0106C8.46617 14.8118 7.90572 15.3563 7.57049 16.1326C7.42383 15.4278 8.30729 14.415 8.59188 13.7928L8.72807 13.7227L8.88695 14.0106ZM8.88695 11.8014C9.54867 11.6194 9.99214 11.2865 10.4653 10.9131L10.6661 11.4483L10.1039 12.1172L8.88695 11.8014ZM11.1096 11.8434L10.8686 12.1172L10.6661 12.0861L10.6696 12.0426L11.0746 11.7158L11.1096 11.8434ZM10.7604 10.1134L10.8302 10.1103L11.1096 10.6346L11.0048 10.9131C10.598 10.7233 10.6137 10.4977 10.7604 10.1134ZM10.6766 21.7519L11.0869 22.0148L10.6661 21.8499C10.6684 21.8171 10.6719 21.7844 10.6766 21.7519ZM10.6696 22.1548L11.1096 22.3244C11.1069 22.3399 11.1046 22.3555 11.1026 22.3711L10.1598 22.9576C9.88913 22.8487 9.85596 22.6324 9.77564 22.3975L9.78437 22.3477L10.6696 22.1548ZM9.35487 21.3505L9.77739 21.503L9.55041 21.6196L9.33217 21.6414L9.35487 21.3505ZM9.33217 13.3229C9.86643 13.4567 9.69707 13.3665 9.71977 13.7227C9.47534 13.5952 9.45788 13.5361 9.33217 13.3229ZM9.33217 20.4933L9.36884 20.1464C9.5766 20.2755 9.64819 20.3517 9.77739 20.5477C9.62903 20.5293 9.48062 20.5112 9.33217 20.4933ZM10.2226 15.4792C10.055 15.6705 10.062 15.6192 9.77739 15.7296L9.97119 15.3283L10.2226 15.4792ZM10.2226 13.8643L9.94326 14.1241C9.6639 13.9841 9.79485 14.0401 9.92056 13.7803L10.0864 13.7227L10.2226 13.8643ZM10.1859 13.1813L9.77739 12.92C10.0917 13.0273 10.0183 12.962 10.1859 13.1813ZM9.33217 20.5477L9.77739 20.8635C9.55041 20.8589 9.4282 20.8153 9.33217 20.5477ZM10.6661 20.5322L10.4845 20.5477L10.3291 20.2926L10.2209 20.1681L10.4618 20.1464C10.5299 20.2755 10.5962 20.4046 10.6661 20.5322ZM10.4216 13.0989L10.2209 12.9215C10.4164 13.0429 10.2872 12.9247 10.4199 13.1005L10.4216 13.0989ZM10.4478 19.7108L10.2209 19.2907L10.3169 18.9453L10.3728 18.9422L10.6661 19.745C10.5934 19.7335 10.5206 19.722 10.4478 19.7108ZM9.28328 24.3826L9.33217 24.4355L9.17329 24.966C8.9863 24.8969 8.82163 24.7872 8.69419 24.6471C8.56676 24.5069 8.48058 24.3406 8.44347 24.1633L9.28328 24.3826ZM7.99825 24.966L8.44347 25.3176C8.15888 25.2056 8.14142 25.2103 7.99825 24.966ZM8.76648 21.4065L8.81886 21.7534L8.44347 21.352L8.76648 21.4065ZM8.3265 23.2843L7.99825 22.5577C8.3876 22.69 8.6914 23.0867 8.88869 23.3605L8.3265 23.2843ZM8.67569 16.1372L8.78568 16.1341L8.46093 16.5355C8.40856 16.4359 8.47316 16.341 8.65299 16.2244L8.67569 16.1372ZM8.44347 19.5879L8.35443 19.7465L8.09952 19.5707C8.06572 19.507 8.03197 19.4432 7.99825 19.3794L8.34745 19.3452L8.44347 19.5879ZM5.33217 22.9591C6.22261 23.4756 7.73636 23.9548 7.99825 24.966C6.94253 24.4962 6.02836 23.8081 5.33217 22.9591ZM7.64208 22.5702L7.99825 22.9591L7.10956 22.5577L7.64208 22.5702ZM10.8966 23.7619L10.2209 23.1551L11.4029 22.1564L11.5548 23.2563L10.8966 23.7619ZM11.5548 24.4324L11.6718 24.171L11.8289 24.1633L11.9983 24.5646L11.5548 24.4324ZM12.1536 22.9591L11.9983 22.5577L12.3213 22.6106L12.1536 22.9591ZM11.5548 9.43982L11.5583 9.40403C11.7049 9.37292 11.8516 9.3418 11.9983 9.30758L11.691 9.70896L11.5548 9.43982ZM7.07289 17.7396L6.66608 16.9369C7.18813 17.038 7.10258 17.3694 7.07289 17.7396ZM5.98516 18.141C5.60454 17.9061 5.36185 17.4378 5.33217 16.9369C6.11261 17.1002 6.06897 17.374 6.22261 18.0088L5.98516 18.141ZM5.52597 16.0455C4.95853 15.5678 5.78437 13.6574 6.14753 13.2171C6.33959 13.0009 6.58053 13.0056 6.8983 12.9215L7.10956 12.9698C6.57529 13.813 6.21563 14.9611 6.08817 16.1341L5.52597 16.0455ZM4.69664 22.5577L4.96726 22.9638L4.72458 23.4694L4.5849 23.6016C4.78394 23.6265 4.82933 23.4741 5.12615 23.2578C5.70231 24.0901 6.58228 24.8867 7.55303 25.3394L7.02401 26.1701L5.41772 25.2492C5.2344 24.9458 5.48756 24.5973 5.19249 24.4122C4.92536 24.2442 4.58141 24.4868 4.30904 24.4137L3.55478 23.7977C3.77652 23.3558 3.98952 22.9233 4.42776 22.6978L4.69664 22.5577ZM3.16019 18.1301C3.22079 17.7297 3.30765 17.3329 3.42034 16.9416L3.4797 16.9369L3.71192 18.1301L3.83413 18.7524C4.18333 19.6205 4.53601 20.4871 4.88869 21.352C4.04365 20.9413 3.52161 19.9908 3.59668 18.712C3.39415 19.1242 3.56176 19.773 3.62811 20.137C3.10956 19.745 3.04496 18.9656 3.16019 18.1301ZM2.38848 18.5424C2.30773 18.3905 2.25693 18.2274 2.23832 18.0601C2.21345 17.835 2.2158 17.6081 2.24531 17.3834L2.32213 17.2403L2.66608 16.9369L2.47228 18.0586L2.38848 18.5424ZM33.3304 22.5562L32.4417 22.2513L33.3042 22.1564L33.3304 22.5562ZM9.81231 29.0903L10.0445 28.9814L9.77564 29.3812L9.81056 29.0918L9.81231 29.0903ZM3.10956 15.3314L2.73069 15.3003C2.25928 15.1618 1.81755 14.6717 1.77739 14.1272C2.49847 14.1848 2.74291 14.4897 3.09908 14.8615C3.10258 15.0171 3.10781 15.1742 3.10956 15.3314ZM3.05718 15.2987C3.10956 14.4322 2.36753 13.8908 1.40375 13.9141C1.56787 12.6975 2.75513 12.0752 3.81318 11.6661L4.01746 11.6521C3.84112 13.1798 3.97556 14.4959 3.33479 15.8183C2.86163 16.7922 1.18376 16.7735 1.27455 18.2764L1.28677 18.4008C1.52597 20.3984 3.96333 20.8044 4.30031 22.5609C0.686163 24.199 5.09123 31.0831 7.94937 27.0398C8.46268 27.1051 8.91838 27.3121 9.55565 27.1129C9.85247 26.9667 9.91008 26.8484 10.0253 26.5435L11.0467 27.0149L11.0991 27.13C10.1632 27.7772 9.50327 28.6655 8.4976 29.2723L8.59363 29.0265L8.33173 28.9845L8.18682 29.0545L8.05587 29.599C8.63029 30.1217 10.371 28.2315 10.8808 27.8612C10.5928 28.7589 9.8804 29.2209 9.48407 30.0424L9.60629 30.1544C10.357 29.6752 11.2772 28.3186 11.4168 27.2872L12.5412 27.4536C11.1323 29.1509 7.51288 32.8847 5.60978 33.8819C5.89961 33.0714 6.36054 32.4522 6.5945 31.7863L6.45831 31.7957C6.41772 31.7582 6.37698 31.7209 6.3361 31.6837C5.87342 32.4958 5.11043 33.0667 4.97425 34.1619C5.05561 34.2705 5.15857 34.3649 5.27804 34.4404C7.54081 34.1044 11.3191 29.0374 13.1244 27.6528C12.6355 32.0244 10.0061 32.7058 7.72588 35.3536C9.79834 34.4326 11.0554 32.0835 12.8276 30.7798C12.632 32.6046 12.1449 36.6853 10.9193 37.4119L11.1218 37.3979C12.4976 36.6355 12.5779 33.5007 13.0371 31.8983L13.2326 30.2135L15.1969 27.7554L15.34 27.6854C15.56 28.2999 16.5552 28.9674 17.6325 28.7884L18.4059 28.4991L20.3474 29.1463C20.6024 31.6354 20.5046 33.0309 18.7359 34.9258C20.543 34.1028 21.2065 30.9322 20.6041 29.2489C24.8066 29.683 24.6373 28.4197 23.8411 25.6925L24.5797 25.7034C24.4435 25.5214 24.0751 25.6568 23.794 25.5167C23.6665 25.4436 23.691 25.4576 23.6124 25.3487C24.6111 24.3453 27.017 25.3425 26.5107 27.0087C27.2021 25.6272 25.6744 24.3982 24.2025 24.8929C24.8311 24.2286 25.5923 23.6825 25.9904 22.8035L26.1336 22.7351L29.5906 25.971L29.7949 25.957L29.952 25.7672C28.852 24.6066 27.7538 23.4445 26.6574 22.2824L27.01 22.1392C27.088 22.0676 27.1837 22.0132 27.2896 21.9805C27.3954 21.9478 27.5084 21.9377 27.6194 21.951C27.5611 21.9252 27.5029 21.8993 27.4448 21.8732C29.21 22.0303 31.4657 23.3418 33.3077 22.9187C33.4771 22.6558 33.4858 22.5142 33.3828 22.2575C35.3453 22.301 38.8756 21.7161 40 20.8667C36.9795 21.4314 33.5784 21.6227 30.8058 21.2929L28.3492 21.0362L28.2113 21.0456L28.873 19.9877C30.8983 19.9534 36.2095 19.9083 37.2833 18.7758L37.0458 18.4926L36.1205 18.3744C36.0557 18.4665 36.0195 18.5722 36.0157 18.6809L36.749 18.7509C35.1567 19.1087 30.722 19.8632 29.2746 19.4229C29.1227 19.258 29.2344 18.6855 29.2414 18.2733C29.244 18.1995 29.2405 18.1257 29.2309 18.0523C31.3121 17.4985 32.8573 16.2508 33.4911 14.3684C33.8525 13.2902 33.6133 11.8745 34.3955 11.2025C34.8948 11.2414 34.9961 11.4296 35.3627 11.5572C35.1689 11.3176 34.8913 11.1838 34.5439 11.0749L33.8926 11.4747C33.2973 11.6801 32.6739 11.1433 31.663 11.5618C30.8424 10.9364 30.3797 9.94854 29.2711 9.5705L29.1576 9.39937L30.502 8.23412C30.062 8.56238 29.6133 8.94976 29.1646 9.33869L28.2636 8.97932L28.2113 8.86264C29.2379 8.21546 30.1493 7.97587 31.3173 8.18123C31.3715 8.27768 31.4291 8.37258 31.4849 8.46904C31.4308 8.55149 31.3819 8.57483 31.3348 8.59816L30.9419 8.50482C31.1113 8.5935 31.2876 8.6215 31.464 8.6495L31.6124 8.52038L31.6351 8.33991C31.3802 8.13767 31.3016 7.99143 30.8005 7.97587L31.0397 7.66161C30.467 8.01321 29.3042 8.10655 28.7351 8.41148L30.0515 7.48737L30.2086 7.29913L27.773 8.5935C27.2527 8.56238 26.6993 8.34458 26.4182 8.08477C26.3733 8.08785 26.3285 8.09096 26.2837 8.09411L29.175 6.35169L29.1279 6.17589C28.0314 6.74529 26.9332 7.31469 25.8385 7.88564L24.7874 7.65539L24.8852 6.81374L32.4225 1.53981L32.557 1.53048L32.4505 1.29868C32.1711 1.18044 31.024 2.00964 30.591 2.25701C28.9219 3.21067 27.4465 4.39769 25.8053 5.25957C26.4828 4.49259 27.7224 3.72873 27.9284 2.61171L27.5967 2.57437L27.0799 2.96642L27.6421 2.74862C27.2789 3.73339 25.6342 5.49137 24.7054 6.04832L24.5971 5.81652C25.2012 4.91108 25.7966 3.69295 25.5172 2.53081L25.0109 2.26634L24.4679 2.30212C24.8154 2.42502 25.0511 2.45458 25.306 2.60549C25.4684 3.73184 24.8468 4.49415 24.5116 5.40581L24.3684 5.47426C24.1449 5.10555 24.1589 4.9282 23.6997 4.8613L23.6595 4.62483L23.9738 4.24523L24.1903 4.11144C24.2636 4.2359 24.2671 4.19078 24.2898 4.40391C24.3542 4.31232 24.3898 4.20702 24.3928 4.09899L24.1362 3.99631L23.457 4.63727C22.8896 4.29968 22.2645 3.94497 21.4666 3.81274C21.9188 2.97731 23.2929 1.63471 22.584 0.57526C21.718 -0.712885 18.7621 0.771282 17.6796 1.7934C17.554 1.90737 17.4449 2.03489 17.3549 2.173C17.462 2.09707 17.5703 2.02239 17.6796 1.94897C18.7481 1.23956 21.5923 -0.459301 22.2086 0.898852C22.8546 1.65649 21.6168 3.11421 21.2798 3.70695C20.1275 3.60271 18.9227 3.5047 17.6831 3.52648C16.3783 3.53662 15.0828 3.72229 13.8402 4.07721C13.2117 4.26234 10.5299 5.69361 10.4269 5.67495L9.20471 4.62016L6.64863 3.4767L6.63466 3.59649L6.48451 3.72562L9.75993 6.19612L9.26058 6.46837C7.9127 5.55827 6.98385 5.00598 4.97774 4.54082L4.63902 4.56415C5.81056 5.2829 6.99083 5.94098 8.16936 6.60061L8.40506 6.88375C7.56351 7.19956 7.20733 7.85608 6.49673 8.26368C5.38629 7.79074 4.35792 7.36136 3.01179 6.99887L2.9175 7.24468L5.43867 8.69151L5.57486 8.68217L5.14011 8.94976C4.93933 9.55183 4.54649 10.2504 4.21825 11.0998C2.96115 12.0114 1.33217 11.957 1.079 13.8145C0.677434 13.9125 0.394587 13.9437 0.0279354 14.1832L0 14.4244C0.230467 14.7106 2.2715 15.4807 2.75862 15.5554L3.05893 15.2971L3.05718 15.2987ZM17.9677 2.45458L18.1545 2.4857L17.9048 2.45769C17.8612 2.45769 17.8175 2.46081 17.7756 2.46236C17.9729 2.13566 18.5526 2.05476 19.1096 2.09054L19.0711 2.32701L17.9817 2.37524L17.9677 2.45458ZM18.7464 2.88552L19.2702 2.73306C19.4972 2.39702 19.6264 2.04076 19.5111 1.71561C18.9716 1.62071 18.6608 1.73739 18.1563 1.92719C18.0644 2.06022 17.9731 2.19349 17.8822 2.32701L17.7774 2.48259C17.8097 2.51598 17.8447 2.54718 17.8822 2.57593C18.0533 2.70039 18.2593 2.74395 18.6381 2.71595C18.7429 2.87463 18.6207 2.80462 18.4339 2.84818L18.7464 2.88552ZM31.6718 6.49948L31.1096 6.59283L31.4553 6.57105L31.8516 6.72351L31.251 7.70362C31.56 7.37847 31.8673 7.14822 31.9983 6.65506L31.6718 6.49948ZM28.4417 22.1579C28.3021 21.9354 28.1502 21.7892 27.9983 21.755C28.1327 21.8685 28.2881 22.0023 28.4417 22.1579ZM26.6643 26.9745L26.2209 27.2047L26.5613 27.1767L26.6643 26.9745ZM28.4417 22.1579C28.8939 22.6122 29.2327 23.4834 29.1349 24.1648C29.6482 23.1769 29.0633 22.5609 28.4417 22.1579Z" fill="#212025"/>
</svg>
