<svg width="27" height="29" viewBox="0 0 27 29" fill="none" xmlns="http://www.w3.org/2000/svg">
<path d="M13.4931 0.184879C12.0624 0.702219 11.3277 1.79809 12.1398 2.22086C12.3441 2.32655 12.5982 2.32655 12.8026 2.22086C12.9628 2.13742 13.1893 1.7814 13.1893 1.61452C13.1893 1.37532 12.8081 1.28631 12.4325 1.44207C12.2668 1.51439 12.2502 1.53664 12.3055 1.60895C12.3939 1.71465 12.4657 1.71465 12.5872 1.60339C12.7363 1.46988 12.8579 1.5422 12.8579 1.77027C12.8579 1.92047 12.8247 1.99278 12.7142 2.0651C12.5872 2.14854 12.5485 2.14854 12.3441 2.07623C11.6592 1.83703 12.0679 1.06936 13.1617 0.546461C14.051 0.118126 14.6642 0.173756 14.9348 0.707783C15.1227 1.0638 14.9293 1.69239 14.3935 2.48231C14.2775 2.66032 14.1615 2.80495 14.1394 2.80495C14.1173 2.80495 13.8522 2.75489 13.5483 2.69926C11.9133 2.37662 10.3887 2.55463 9.01323 3.2166C8.3835 3.52255 7.93055 3.80625 7.51073 4.15671L7.27873 4.3514L6.96386 4.0232C6.7871 3.83963 6.47224 3.57261 6.26233 3.42798C5.90328 3.18878 4.96421 2.75489 4.7985 2.74932C4.75431 2.74932 4.8924 2.87727 5.10231 3.03859C5.69889 3.48917 6.20709 3.95645 6.53852 4.36809L6.84786 4.74636L6.68767 4.94662C6.60481 5.05231 6.52195 5.14132 6.50538 5.14132C6.48881 5.14132 6.37833 5.0245 6.26233 4.88543C5.96404 4.52941 5.46136 4.16227 4.87583 3.88969C4.42287 3.67274 3.63296 3.39461 3.59429 3.43911C3.58324 3.44467 3.76 3.56149 3.97544 3.695C4.19639 3.82294 4.53887 4.05101 4.73773 4.19565C5.10784 4.47379 5.89775 5.25814 5.89775 5.35271C5.89775 5.38052 5.69337 5.49734 5.44479 5.60859C5.19069 5.71985 4.85926 5.89786 4.70459 6.00911L4.42287 6.19825L4.0583 5.95349C3.85943 5.81998 3.50038 5.64753 3.26285 5.56965C2.82647 5.42502 2.4177 5.33602 2.4177 5.38608C2.4177 5.39721 2.55027 5.49178 2.71046 5.58634C3.03085 5.7866 3.84286 6.4152 3.95334 6.5487C4.0141 6.62102 3.99201 6.67665 3.83182 6.8936C3.57219 7.23293 3.27943 7.85596 3.1579 8.32323L3.05847 8.69594L2.80989 8.75713C2.40665 8.85726 1.83769 9.19102 1.57254 9.47473C1.36816 9.69168 1.22454 9.97538 1.11406 10.3536C1.10301 10.3926 1.03672 10.426 0.964914 10.426C0.887579 10.426 0.766054 10.476 0.683195 10.5428C0.478811 10.7041 0.478811 11.0712 0.683195 11.2826C0.83234 11.4328 1.11958 11.5385 1.37921 11.5385C1.46206 11.5385 1.54492 11.5663 1.56149 11.5941C1.62778 11.6998 2.0255 11.8723 2.19674 11.8723C2.30722 11.8723 2.4177 11.8222 2.5116 11.7277C2.63313 11.6053 2.6497 11.5496 2.62208 11.3327C2.58342 10.9489 2.25198 10.6596 1.66092 10.4816L1.43445 10.4093L1.50626 10.1589C1.63883 9.72505 2.29065 9.19659 2.85961 9.06308L2.99771 9.02971L2.99218 10.0199C2.99218 10.8765 2.97561 11.0601 2.87066 11.3939C2.80437 11.5997 2.74913 11.8167 2.74913 11.8667C2.74913 11.9168 2.56132 12.1393 2.33484 12.3618C2.0476 12.6455 1.86531 12.8847 1.72721 13.1629C1.55597 13.5133 1.53388 13.6023 1.53388 13.9917C1.53388 14.5202 1.64435 14.8039 2.06417 15.3602C2.35141 15.7384 3.10819 16.4894 3.19657 16.4894C3.21866 16.4894 3.27943 16.6118 3.32914 16.7675L3.41752 17.0457L3.08609 17.3572C2.51713 17.8857 2.29065 18.5532 2.41217 19.3542C2.5116 20.0385 2.66075 20.3611 3.08057 20.7783C3.39543 21.1009 3.49486 21.1677 3.82077 21.2678C4.52783 21.4848 5.09126 21.3846 5.56079 20.9619C5.83147 20.7171 5.85908 20.706 6.10214 20.7338C6.46119 20.7727 7.00806 20.6837 7.30082 20.5391C7.43892 20.4723 7.56597 20.4334 7.58806 20.4557C7.61016 20.4723 7.60464 20.578 7.58806 20.6893C7.55492 20.8451 7.43339 21.0119 7.09644 21.368C6.49433 21.9965 6.21814 22.1912 5.91432 22.1857C5.6547 22.1801 5.61051 22.2524 5.77623 22.4026C6.04137 22.6474 6.49986 22.4193 7.02463 21.774C7.22901 21.5293 7.40025 21.329 7.41682 21.329C7.51073 21.329 7.07434 22.2357 6.74843 22.7086C6.48881 23.0813 6.46119 23.1647 6.58272 23.1647C6.77053 23.1647 7.38368 22.1134 7.60464 21.4125C7.68197 21.1621 7.81454 20.884 7.89188 20.7894L8.0355 20.617L8.38903 20.7171C8.63208 20.7839 8.74256 20.8395 8.74256 20.9007C8.74256 21.1065 6.533 23.76 5.48898 24.8058C4.72669 25.5679 4.4063 25.8015 4.28477 25.6791C4.19087 25.5845 4.29582 25.1284 4.52783 24.6389C4.62726 24.4219 4.72116 24.2217 4.73221 24.1938C4.74326 24.1605 4.71564 24.1716 4.66592 24.2161C4.50573 24.344 4.06934 25.0895 3.90363 25.5178C3.64953 26.1631 3.71029 26.469 4.06934 26.3466C4.88136 26.0574 6.61033 24.294 8.41112 21.9131L8.78675 21.4125L8.74808 22.2413L8.70941 23.0702L8.17912 23.7711C7.35606 24.8503 6.74843 25.5845 6.15185 26.2076C5.85356 26.5247 5.63261 26.7805 5.66022 26.7805C5.98613 26.7805 7.25663 25.4288 8.36141 23.9157C8.56027 23.6431 8.6376 23.5708 8.65418 23.6431C8.68732 23.8045 8.54922 25.2563 8.43322 25.9739C8.21779 27.309 7.94712 28.0822 7.59911 28.3604C7.42787 28.4939 7.42787 28.505 7.54387 28.505C7.9195 28.505 8.18464 28.1267 8.41112 27.2756C8.6597 26.33 8.83094 25.1562 8.93037 23.721L8.97456 23.0813L9.5159 22.3025C9.81419 21.8742 10.0683 21.5126 10.0738 21.5015C10.0849 21.4903 10.2064 21.5849 10.3445 21.7128C10.6814 22.0299 10.8693 22.0967 11.3885 22.1022C11.8636 22.1078 12.1453 22.0132 12.2834 21.8019L12.3607 21.685L12.8137 21.9131C13.0678 22.0411 13.3274 22.1579 13.3882 22.1746C13.5539 22.2191 13.6367 22.6196 13.6699 23.5541C13.6975 24.205 13.6809 24.3774 13.5815 24.7779C13.3329 25.7681 12.6921 26.4301 11.7531 26.6804C11.3554 26.7861 11.4603 26.8139 11.9188 26.7249C12.8579 26.5469 13.5318 25.8682 13.7803 24.8558C13.8853 24.4219 13.9074 23.0368 13.8135 22.6029L13.7583 22.3414L14.3327 22.3748C15.0453 22.4082 15.5038 22.3025 15.8297 22.0188C16.1335 21.7573 16.2274 21.5293 16.2274 21.0564C16.2274 20.5947 16.1059 20.1942 15.8187 19.7269L15.6198 19.4099L15.9347 19.115C16.2053 18.8536 16.2716 18.8202 16.4097 18.848C16.9014 18.9481 17.5697 19.5267 17.6416 19.9161C17.6913 20.1942 17.636 20.4779 17.4758 20.7227C17.2715 21.0286 17.404 21.0453 17.6139 20.7394C17.9509 20.2443 17.9067 19.7603 17.4814 19.293C17.2162 18.9982 16.6693 18.6589 16.4594 18.6589C16.4208 18.6589 16.4981 18.5254 16.6307 18.3641C16.7633 18.1972 16.9511 17.9246 17.045 17.7577C17.1444 17.5853 17.2549 17.4239 17.2935 17.3906C17.3433 17.3461 17.636 17.6465 18.4867 18.6088C19.3926 19.6324 19.6246 19.8716 19.6854 19.8215C19.7296 19.7881 19.7627 19.7269 19.7627 19.6936C19.7572 19.6602 19.2766 19.0538 18.6856 18.3529C17.636 17.1013 17.6195 17.0735 17.7355 16.99C17.8017 16.9455 17.9619 16.8232 18.1 16.723C18.3928 16.495 18.5088 16.5228 18.7629 16.8955C18.9397 17.1625 19.2103 17.8912 19.2103 18.1193C19.2103 18.3196 19.2656 18.4364 19.354 18.4364C19.3982 18.4364 19.4313 18.3807 19.4313 18.3084C19.4313 18.097 19.2269 17.3516 19.1054 17.1069C19.0391 16.9845 18.9894 16.8732 18.9894 16.8565C18.9894 16.8454 19.1661 16.9233 19.3816 17.029C20.0721 17.3683 20.6686 17.5463 21.1382 17.5463C21.6409 17.5463 21.8894 17.4406 22.0717 17.1514C22.1988 16.9511 22.2043 16.9511 22.6793 16.9122C23.2317 16.8732 24.0161 16.7175 24.6956 16.5172C25.1872 16.3781 26.2423 15.9832 26.2146 15.9554C26.2036 15.9498 26.06 15.9776 25.8943 16.0221C24.8613 16.2947 23.414 16.4449 21.8618 16.4505C20.7239 16.4505 20.0224 16.3781 19.1164 16.1779L18.7132 16.0889L18.8237 15.9387C18.8789 15.8552 18.9783 15.6605 19.0336 15.5103L19.1441 15.2378L19.4644 15.2044C19.6467 15.1821 20.0776 15.1655 20.4256 15.1599C21.2376 15.1543 22.707 15.0598 23.2428 14.9819C23.7013 14.9151 24.1377 14.7649 24.2978 14.6203C24.5133 14.4256 24.3862 14.0918 24.0714 14.0195C23.9056 13.975 23.5466 14.1475 23.5466 14.2643C23.5466 14.3143 23.6184 14.3588 23.7399 14.3811L23.9333 14.4145L23.7731 14.4812C23.5245 14.5814 22.3369 14.7037 20.9227 14.7649C20.2102 14.7927 19.5418 14.8206 19.4479 14.8206H19.2656V14.3477C19.2656 13.8805 19.2656 13.8749 19.4037 13.8749C19.6025 13.8749 20.2157 13.6357 20.5692 13.4243C20.9559 13.1907 21.5635 12.5509 21.7734 12.156C22.022 11.6943 22.1435 11.1491 22.1767 10.3648C22.2098 9.6583 22.2098 9.6583 22.4694 9.14096C22.7843 8.5068 22.8672 8.46786 23.1875 8.80719C23.3091 8.93514 23.4195 9.03527 23.4361 9.03527C23.5245 9.03527 23.4416 8.84057 23.2704 8.65144C23.1213 8.48455 23.0273 8.42892 22.8616 8.41224C22.6572 8.39555 22.6296 8.41224 22.3811 8.71263L22.1104 9.02971L22.0662 8.84057C21.9944 8.5513 21.7955 8.36773 21.558 8.36773C21.3426 8.36773 21.0774 8.48455 20.8896 8.657L20.7736 8.76269L20.5747 8.49568C20.3704 8.21198 19.7572 7.60563 19.4368 7.36087L19.2435 7.21624L19.5749 6.99372C19.7517 6.87135 20.0334 6.64883 20.1991 6.49864L20.4974 6.23162L20.6245 6.38738C20.6963 6.47083 20.757 6.57652 20.757 6.62102C20.757 6.66552 20.7957 6.6989 20.8399 6.6989C21.0167 6.6989 20.8786 6.25944 20.6576 6.12593C20.5968 6.08143 20.5968 6.06474 20.6631 5.98686C20.9117 5.70316 21.1382 5.01894 21.0387 4.86874C20.9448 4.71855 20.4256 4.83537 20.4256 5.00781C20.4256 5.069 20.4532 5.08569 20.525 5.05788C20.5747 5.03563 20.6797 5.00225 20.7515 4.98556C20.8786 4.95775 20.8841 4.96887 20.8509 5.19695C20.8344 5.32489 20.7515 5.54184 20.6631 5.68091L20.5085 5.9368L20.0224 5.94236L19.5307 5.94792L19.7406 5.76435C19.8843 5.64197 19.9284 5.56409 19.8898 5.52515C19.8511 5.48621 19.7185 5.57522 19.4644 5.80885C19.2656 5.99242 19.0667 6.14262 19.0336 6.14262C18.9949 6.14262 18.7795 6.23162 18.5475 6.33732L18.1332 6.53758L17.8128 6.39851C17.6416 6.32063 17.4979 6.24275 17.4979 6.23162C17.4979 6.2205 17.6416 6.10368 17.8183 5.97017C18.437 5.5029 19.2601 4.83537 19.238 4.81868C19.2048 4.7853 17.6802 5.5474 17.277 5.79773L16.9179 6.02024L16.8737 5.64753C16.8516 5.44727 16.8295 5.23032 16.8185 5.16357C16.813 5.08013 17.2659 4.63511 18.7408 3.30004C19.8069 2.33768 20.8288 1.41982 21.0056 1.25293C21.1879 1.09161 21.3039 0.974796 21.2597 0.997047C21.221 1.02486 20.4974 1.54776 19.6578 2.16523C18.8181 2.7827 18.1056 3.30004 18.0724 3.32229C18.0448 3.33898 18.0724 3.17766 18.1442 2.96627C18.2878 2.53794 18.3431 1.85928 18.2326 1.82034C18.1939 1.80365 18.1553 1.90934 18.1332 2.12073C18.0835 2.57131 17.9122 3.12203 17.7355 3.42798C17.625 3.60599 17.4206 3.80625 17.056 4.07883C16.5368 4.46822 16.5312 4.46822 16.4373 4.35697C16.3434 4.24571 16.349 4.23458 16.5533 3.98426C17.2217 3.17209 17.2715 2.23755 16.6693 1.79809C16.5036 1.67014 16.2551 1.63677 16.2551 1.7369C16.2551 1.77027 16.3379 1.84815 16.4429 1.90378C16.7688 2.0651 16.8627 2.25423 16.8627 2.71038C16.8572 3.14984 16.7135 3.51143 16.3932 3.88413L16.2274 4.07327L16.0728 3.92307C15.9899 3.84519 15.8408 3.71169 15.7469 3.62824C15.5867 3.49474 15.5701 3.46136 15.6198 3.33342C15.7027 3.1109 15.675 3.03302 15.5867 3.23885C15.5425 3.33898 15.4872 3.41686 15.4651 3.40573C15.1227 3.22216 14.4543 2.91621 14.4101 2.91621C14.3769 2.91621 14.4653 2.74932 14.6034 2.53794C15.0895 1.80921 15.3547 1.08605 15.2718 0.735596C15.2166 0.529774 14.968 0.246071 14.7526 0.157066C14.504 0.0513725 13.8301 0.0680618 13.4931 0.184879ZM12.2999 3.22772C12.8247 3.36123 13.2887 3.62824 13.7085 4.02876C13.924 4.24015 14.0842 4.42372 14.0676 4.44041C14.0289 4.47935 13.0346 4.34028 12.6424 4.24015C12.5043 4.20677 12.2447 4.08439 12.0679 3.96757C11.6978 3.72281 11.0515 3.44467 10.6538 3.3501C10.4992 3.31673 10.3721 3.26666 10.3721 3.24441C10.3721 3.22216 10.5157 3.18878 10.6925 3.16653C10.8637 3.14984 11.046 3.12203 11.0902 3.1109C11.2394 3.07753 11.9851 3.14984 12.2999 3.22772ZM13.7693 3.24997C13.7859 3.27779 13.7803 3.3056 13.7472 3.3056C13.7196 3.3056 13.6754 3.27779 13.6588 3.24997C13.6423 3.2166 13.6478 3.19435 13.6809 3.19435C13.7085 3.19435 13.7527 3.2166 13.7693 3.24997ZM14.6255 3.53924C14.8244 3.62824 15.0453 3.7395 15.1171 3.784L15.2442 3.873L15.0343 4.08995C14.9183 4.20677 14.7912 4.3069 14.7581 4.3069C14.7194 4.3069 14.5979 4.18452 14.4874 4.02876C14.3769 3.87857 14.2112 3.68943 14.1173 3.61155C14.0124 3.52255 13.9626 3.43911 13.9847 3.38348C14.0234 3.28335 14.1063 3.30004 14.6255 3.53924ZM9.87496 3.96757L10.1235 4.00651L9.92467 4.07327C9.81419 4.11221 9.60981 4.2179 9.46066 4.31247C9.31704 4.40147 9.19552 4.47379 9.18447 4.46266C9.17895 4.45153 9.15133 4.32915 9.13475 4.17896L9.09609 3.91751L9.36123 3.92307C9.50486 3.92307 9.73686 3.94532 9.87496 3.96757ZM15.6916 4.24571C15.8076 4.35697 15.9568 4.52941 16.0175 4.62954L16.128 4.81311L15.9733 4.98C15.8905 5.069 15.8021 5.14132 15.7855 5.14132C15.7192 5.14132 14.8851 4.64623 14.8465 4.57948C14.8244 4.5461 14.9127 4.40703 15.0453 4.26796C15.1779 4.12889 15.2884 3.99539 15.2884 3.96201C15.2884 3.89526 15.3989 3.97313 15.6916 4.24571ZM8.59894 4.41816C8.60446 4.55166 8.59341 4.55723 8.18464 4.56835C7.95816 4.56835 7.7814 4.56279 7.79245 4.5461C7.80902 4.53498 7.98026 4.41259 8.1736 4.27353C8.51608 4.02876 8.5216 4.02876 8.56027 4.15114C8.57684 4.22346 8.59341 4.34028 8.59894 4.41816ZM11.3885 4.51273L11.7089 4.71299L11.3056 4.8298C11.0792 4.89656 10.7588 5.0245 10.582 5.11907L10.2727 5.29152L10.1125 5.16357C10.0241 5.09682 9.83629 4.97444 9.69267 4.90212L9.43304 4.76305L9.64295 4.63511C9.98543 4.42928 10.3832 4.31247 10.7312 4.3069C11.0239 4.3069 11.1068 4.33472 11.3885 4.51273ZM13.2335 4.52385C13.3495 4.55723 13.3384 4.56835 13.1396 4.61842C12.9352 4.67405 12.9076 4.66848 12.7916 4.5461L12.6645 4.40703L12.8855 4.45153C13.007 4.47379 13.1617 4.50716 13.2335 4.52385ZM14.4322 4.97444C14.4708 5.04119 14.3659 5.04119 14.2112 4.97444C14.1118 4.92993 14.1173 4.92437 14.2499 4.92437C14.3327 4.91881 14.4156 4.94106 14.4322 4.97444ZM12.1839 5.20251C12.2226 5.26926 12.2502 5.32489 12.2392 5.33045C12.2281 5.33602 12.0403 5.37496 11.8138 5.40833C11.5929 5.44727 11.2504 5.54184 11.0571 5.61972C10.698 5.76435 10.5931 5.75879 10.5931 5.60859C10.5931 5.51403 10.9632 5.33602 11.4493 5.19138C11.9078 5.05788 12.0956 5.05788 12.1839 5.20251ZM13.6864 5.20251C13.7859 5.23589 13.7527 5.24145 13.5539 5.23589C13.3882 5.23032 13.2722 5.19695 13.2556 5.15244C13.2335 5.08013 13.3384 5.09126 13.6864 5.20251ZM8.16255 5.33602C8.01893 5.48621 7.95816 5.51403 7.88083 5.47509C7.82559 5.44171 7.71511 5.39164 7.62673 5.35827L7.47206 5.29152L7.69302 5.2192C7.81454 5.18026 8.0134 5.14688 8.12941 5.14688L8.35036 5.14132L8.16255 5.33602ZM9.58771 5.49178C9.68162 5.5474 9.76448 5.60303 9.76448 5.61415C9.76448 5.6531 9.18447 6.18712 9.1679 6.17043C9.15685 6.15931 9.16237 5.96461 9.18447 5.73097C9.22866 5.27483 9.22314 5.28039 9.58771 5.49178ZM8.62103 5.6531C8.60446 5.7866 8.58237 5.89786 8.58237 5.90342C8.57684 5.91455 8.51608 5.88117 8.44979 5.8311L8.32827 5.74766L8.44979 5.58634C8.62103 5.36939 8.65418 5.38052 8.62103 5.6531ZM12.7087 6.00355C12.7916 6.176 12.8579 6.32063 12.8579 6.33175C12.8579 6.34288 12.5927 6.36513 12.2668 6.38738C11.9354 6.40963 11.5321 6.43745 11.3664 6.45414L11.0626 6.48751L10.9687 6.29282L10.8748 6.09256L11.162 5.98686C11.4106 5.8923 11.5929 5.84779 12.1674 5.73097C12.5099 5.66422 12.554 5.68647 12.7087 6.00355ZM14.2388 6.03136C14.2388 6.35957 14.2388 6.36513 14.0179 6.47639C13.9019 6.53758 13.7914 6.58764 13.7748 6.58764C13.7638 6.58764 13.7362 6.48195 13.7141 6.35401C13.692 6.2205 13.6367 6.02024 13.5981 5.90898L13.5263 5.6976H13.8798H14.2388V6.03136ZM6.56614 6.55983C6.57167 6.71002 6.58272 6.73784 6.59929 6.64327C6.61033 6.56539 6.649 6.4152 6.68767 6.3095C6.74843 6.12037 6.75396 6.12593 6.7871 6.55983C6.80367 6.80459 6.83681 7.06604 6.85891 7.14392C6.89205 7.27743 6.86996 7.29412 6.44462 7.461L5.99166 7.63345L6.0248 7.18842C6.0469 6.81572 6.09109 6.66552 6.26233 6.31507L6.47224 5.8923L6.51643 6.11481C6.53852 6.23719 6.56062 6.43745 6.56614 6.55983ZM7.40578 6.03693L7.61568 6.09256L7.57149 6.35401C7.5494 6.49864 7.53282 6.73228 7.53835 6.87135C7.5494 7.11054 7.54387 7.1328 7.40578 7.17173C7.21796 7.21624 7.16825 7.15505 7.10749 6.82684C7.05777 6.55983 7.09091 5.97574 7.16272 5.97574C7.1793 5.97574 7.28977 6.00355 7.40578 6.03693ZM5.70442 6.12593C5.54422 6.49864 5.45584 6.99372 5.45584 7.48325C5.45584 7.95052 5.43927 8.0284 5.33984 8.12297C5.19622 8.25092 5.15755 8.19529 5.06364 7.71132C4.94764 7.07161 5.05812 6.5932 5.41717 6.20937C5.60499 6.01468 5.7707 5.96461 5.70442 6.12593ZM20.2267 6.13706C20.3206 6.17043 20.2875 6.21494 19.9947 6.46526C19.5528 6.83241 19.1827 7.08829 19.0888 7.08829C19.0501 7.08829 18.9728 7.04935 18.9176 7.00485C18.8181 6.93254 18.8237 6.91585 19.017 6.62102C19.2545 6.25388 19.2601 6.25388 19.6246 6.16487C19.945 6.08699 20.0831 6.08143 20.2267 6.13706ZM8.30065 6.37626C8.5437 6.49308 8.54922 6.49864 8.51608 6.72115C8.46636 7.08273 8.46084 7.08829 8.19569 7.08829C7.88083 7.08829 7.78692 6.9381 8.09074 6.91028C8.21779 6.89916 8.31722 6.84909 8.36693 6.77121C8.44427 6.6544 8.43874 6.6544 8.22331 6.68221C7.96921 6.71559 7.90293 6.63771 7.96369 6.39294C8.00788 6.22606 7.99131 6.22606 8.30065 6.37626ZM18.8402 6.60989C18.6911 6.85466 18.6911 6.85466 18.5364 6.77678C18.4536 6.73228 18.3818 6.68221 18.3818 6.67109C18.3818 6.64327 18.8844 6.37069 18.9452 6.36513C18.9673 6.36513 18.9176 6.47639 18.8402 6.60989ZM10.4494 6.50976C10.4936 6.62102 10.4992 6.62102 10.2672 6.66552L10.0738 6.6989L10.2064 6.55983C10.3611 6.39851 10.4053 6.38738 10.4494 6.50976ZM12.9518 6.61546C12.9683 6.66552 12.9683 6.71559 12.9518 6.73228C12.9352 6.74896 12.6645 6.72671 12.3552 6.68777C11.7199 6.60989 11.7862 6.5487 12.5154 6.53758C12.8302 6.53201 12.9241 6.5487 12.9518 6.61546ZM17.7465 7.00485C18.4812 7.36643 19.028 7.72245 19.5031 8.14522L19.7738 8.38442L19.597 8.47899L19.4202 8.57355L19.1164 8.25092C18.6303 7.73914 17.6084 7.08829 16.9345 6.87135C16.7412 6.80459 16.6749 6.71002 16.7633 6.62658C16.8185 6.56539 16.9732 6.62658 17.7465 7.00485ZM4.50573 7.12723C4.56649 7.21624 4.62726 7.4165 4.64935 7.57782C4.67145 7.7447 4.74878 8.03953 4.82059 8.24535C4.9145 8.5068 4.93659 8.64031 4.89793 8.71263C4.83164 8.83501 4.87031 8.82944 4.47811 8.72931C4.30687 8.68481 4.03068 8.64587 3.87048 8.64587C3.60534 8.64587 3.57772 8.63475 3.57772 8.51793C3.57772 8.25092 4.22401 6.97704 4.36211 6.97704C4.3842 6.97704 4.44497 7.04379 4.50573 7.12723ZM9.1458 7.29412C8.99666 7.45544 8.96904 7.42762 9.01323 7.16617C9.0519 6.97147 9.05742 6.97147 9.16237 7.06604C9.26733 7.16061 9.26733 7.16617 9.1458 7.29412ZM17.7962 7.91158C18.2271 8.1786 18.6579 8.53462 18.8513 8.7905L18.9894 8.96851L18.8844 9.21328C18.8292 9.34122 18.7684 9.50254 18.7463 9.56373C18.7132 9.65274 18.669 9.60267 18.4978 9.27447C18.2381 8.77382 17.8846 8.35104 17.4593 8.03397C17.1168 7.77808 16.9455 7.60563 16.9455 7.52775C16.9455 7.461 17.3654 7.65014 17.7962 7.91158ZM7.22349 7.8949C7.02463 8.00059 6.75948 8.18416 6.63243 8.30098L6.40043 8.51793L6.25128 8.39555L6.09661 8.27317L6.23471 8.18416C6.417 8.06178 6.74291 7.92827 7.14063 7.80589C7.61568 7.66682 7.62673 7.67795 7.22349 7.8949ZM14.0455 7.98946C14.2609 8.1786 14.4598 8.51793 14.4598 8.69594C14.4598 8.77938 14.399 8.74044 14.1725 8.51237C14.0124 8.35104 13.7638 8.17303 13.6202 8.11185C13.3274 7.99503 13.2942 7.94496 13.4821 7.86708C13.703 7.77808 13.8466 7.80589 14.0455 7.98946ZM15.5425 8.22866C15.6806 8.32323 15.7358 8.54574 15.6861 8.80163L15.6474 8.97964L15.3989 8.66256C14.9625 8.10628 14.979 8.14522 15.2166 8.14522C15.3326 8.14522 15.4817 8.18416 15.5425 8.22866ZM7.47206 8.62362C7.5273 9.12983 7.48311 9.16877 6.97491 9.03527C6.765 8.97408 6.57719 8.92957 6.56614 8.92957C6.47776 8.91289 7.26215 8.25648 7.36711 8.25648C7.40578 8.25648 7.44997 8.41224 7.47206 8.62362ZM21.7182 8.71819C21.7955 8.79607 21.8618 8.94626 21.8839 9.09646C21.917 9.32453 21.895 9.39685 21.6519 9.85856L21.3812 10.3759L21.2873 9.99763C21.2376 9.79181 21.1216 9.4636 21.0332 9.27447L20.873 8.92401L21.0332 8.81276C21.3757 8.56799 21.5469 8.54574 21.7182 8.71819ZM18.0061 9.57486C18.216 9.99763 18.2326 10.0755 18.2547 10.5762C18.2713 10.8765 18.2602 11.2214 18.2326 11.3438C18.1829 11.5663 18.1829 11.5663 17.9288 11.5552C17.7907 11.5552 17.6084 11.5051 17.5256 11.4495C17.3764 11.3494 17.3709 11.3438 17.404 10.8765C17.4316 10.4593 17.404 9.85856 17.3046 8.90176L17.2825 8.62362L17.5311 8.87395C17.6802 9.01858 17.8736 9.30228 18.0061 9.57486ZM20.1936 8.92401C20.2599 9.01302 20.3151 9.10758 20.3151 9.12983C20.3096 9.15208 20.2267 9.2689 20.1218 9.39128L19.934 9.60823L19.8787 9.47473C19.8511 9.40241 19.7903 9.24109 19.7406 9.11871C19.6523 8.91289 19.6523 8.8962 19.7406 8.82944C19.9008 8.71263 20.0665 8.746 20.1936 8.92401ZM4.47811 9.03527L4.68802 9.09646L4.36763 9.33566C4.19087 9.46916 3.90363 9.72505 3.73239 9.91419L3.412 10.2535V9.88081C3.412 9.67499 3.42857 9.3746 3.45067 9.20771L3.48381 8.90732L3.87601 8.94626C4.09144 8.96295 4.36211 9.00745 4.47811 9.03527ZM16.4705 9.15765C16.5589 9.29672 16.6749 9.90862 16.6417 10.0755C16.5589 10.4816 16.5533 10.5038 16.4981 10.4204C16.4705 10.3815 16.4097 10.2035 16.36 10.0366C16.3158 9.86968 16.2164 9.62492 16.1446 9.49698L16.0175 9.25778L16.1556 9.14652C16.3379 9.00745 16.3711 9.00745 16.4705 9.15765ZM22.2761 9.20771C22.2264 9.30228 22.1711 9.36903 22.1546 9.35234C22.127 9.32453 22.2927 9.03527 22.3369 9.03527C22.3534 9.03527 22.3203 9.11315 22.2761 9.20771ZM19.4092 9.98094C19.4368 10.2146 19.4202 10.2591 19.1551 10.6207C18.9949 10.832 18.8623 11.0156 18.8568 11.0212C18.8513 11.0267 18.8623 10.8599 18.8844 10.6429C18.9231 10.2758 19.028 9.83631 19.1606 9.49142L19.2214 9.34122L19.2987 9.53592C19.3484 9.64161 19.3982 9.84187 19.4092 9.98094ZM20.641 9.78068C20.7073 9.95869 20.7791 10.3036 20.7957 10.5372L20.8288 10.96L20.4035 11.1714C20.1715 11.2882 19.9671 11.3716 19.9505 11.3605C19.9395 11.3438 19.9561 11.1881 19.9892 11.0045C20.0224 10.8265 20.0389 10.4983 20.0224 10.2758L19.9947 9.87525L20.2157 9.61936C20.3427 9.48029 20.4587 9.38016 20.4808 9.40797C20.5029 9.43023 20.5747 9.60267 20.641 9.78068ZM21.917 9.81406C21.8839 9.88081 21.8397 9.92531 21.8231 9.90862C21.8121 9.89194 21.8287 9.83075 21.8673 9.76399C21.9612 9.61936 21.9999 9.6583 21.917 9.81406ZM5.14098 9.91975C5.15755 9.99207 5.10784 10.0866 4.98631 10.2035C4.88688 10.3036 4.73221 10.5372 4.64383 10.7264C4.50021 11.0379 4.48916 11.1213 4.48916 11.7054V12.3507L4.22954 12.2951C3.97544 12.2394 3.96439 12.2339 3.96439 12.0447C3.96991 11.4606 4.32897 10.5928 4.78193 10.0866C5.04707 9.78624 5.09679 9.76399 5.14098 9.91975ZM21.8894 11.0212C21.7845 11.5886 21.5911 11.9112 21.2321 12.1226C21.105 12.2005 20.978 12.2617 20.9614 12.2617C20.9393 12.2617 21.0167 12.1004 21.1216 11.9001C21.2763 11.6164 21.3315 11.4495 21.3536 11.1602C21.3812 10.7319 21.4144 10.6596 21.7182 10.298L21.9447 10.0366L21.9612 10.2869C21.9723 10.426 21.9391 10.7542 21.8894 11.0212ZM15.7855 10.4927C15.9512 10.7597 15.9512 10.7653 15.8297 10.7264C15.5977 10.654 15.4596 10.5317 15.4265 10.3703C15.4044 10.2813 15.4099 10.1812 15.4265 10.1478C15.4817 10.0588 15.5867 10.1645 15.7855 10.4927ZM5.51108 11.1269C5.3067 11.4495 5.18517 11.85 5.1686 12.245C5.15203 12.5621 5.14098 12.5788 4.99183 12.4675C4.92002 12.4119 4.8924 12.2839 4.86478 11.8945C4.82059 11.1658 4.92555 10.8265 5.33431 10.426L5.64918 10.12L5.66575 10.4872C5.68232 10.8209 5.66575 10.8877 5.51108 11.1269ZM17.1996 11.1936C17.1831 11.2048 17.0947 11.1881 17.0063 11.1491L16.8461 11.0824L17.0063 10.8265C17.0947 10.6874 17.172 10.5317 17.1775 10.4872C17.1831 10.4371 17.1996 10.5706 17.2052 10.782C17.2162 10.9878 17.2162 11.1769 17.1996 11.1936ZM19.4534 10.7709C19.4368 10.871 19.3871 11.0879 19.3429 11.2437C19.2656 11.5385 19.2601 11.5385 19.0391 11.5385C18.8789 11.5385 18.8292 11.5218 18.8568 11.4662C18.9452 11.316 19.4479 10.5928 19.4644 10.5928C19.4755 10.5928 19.47 10.6763 19.4534 10.7709ZM1.20797 10.9544C1.3074 11.2326 1.27425 11.2604 1.01463 11.138C0.826817 11.0546 0.771578 10.8765 0.904151 10.7764C1.06434 10.6596 1.11406 10.6874 1.20797 10.9544ZM6.29547 10.9656C6.03585 11.2882 5.83699 11.6331 5.70442 12.0114C5.56632 12.3952 5.49451 12.4564 5.54422 12.1504C5.59394 11.8389 5.75413 11.405 5.9088 11.1881C6.00823 11.049 6.42252 10.7041 6.48881 10.7041C6.49986 10.7041 6.417 10.8209 6.29547 10.9656ZM1.84874 10.8654C2.15808 11.0101 2.30722 11.1714 2.30722 11.3661C2.30722 11.583 2.24093 11.6164 2.00893 11.5163C1.88188 11.4606 1.75483 11.3383 1.64435 11.1714C1.37921 10.7486 1.42892 10.6763 1.84874 10.8654ZM15.9402 11.1491C16.0728 11.1491 16.0783 11.1547 16.0286 11.2826C15.9899 11.3883 15.8187 11.3994 15.7413 11.2993C15.7137 11.2659 15.6695 11.1714 15.6474 11.0935C15.6088 10.96 15.6088 10.96 15.7137 11.049C15.7745 11.1046 15.8739 11.1491 15.9402 11.1491ZM20.7626 11.3049C20.6134 11.8278 20.0886 12.3062 19.4423 12.5064C19.3263 12.5454 19.3263 12.5398 19.4865 12.3006C19.5749 12.1671 19.6964 11.9446 19.7572 11.8055C19.8401 11.6053 19.8953 11.5496 20.0721 11.494C20.1936 11.4551 20.3869 11.3661 20.5085 11.2938C20.7957 11.1213 20.8123 11.1213 20.7626 11.3049ZM17.1389 12.0837C17.0836 12.7123 17.0671 12.7623 16.9069 12.7623C16.7743 12.7623 16.7688 12.7512 16.8019 12.5509C16.8185 12.4397 16.8351 12.1504 16.8351 11.9112V11.4773L17.0063 11.5719L17.1775 11.6609L17.1389 12.0837ZM18.0835 11.8556C18.0669 11.9001 18.0503 11.9502 18.0503 11.9724C18.0503 12.0169 17.8901 11.8 17.8846 11.7499C17.8846 11.7332 17.9343 11.7277 18.0006 11.7443C18.0669 11.7666 18.1 11.8055 18.0835 11.8556ZM19.1551 11.7332C19.1551 11.7443 19.1054 11.8389 19.0446 11.939L18.9397 12.117L18.8789 11.9613C18.796 11.7332 18.8071 11.7054 18.9894 11.7054C19.0833 11.7054 19.1551 11.7165 19.1551 11.7332ZM17.7299 12.2227C17.8404 12.3729 17.8404 12.3729 17.7189 12.5676C17.625 12.7234 17.5642 12.7623 17.4316 12.7623H17.2604L17.2991 12.4675C17.3156 12.3117 17.3322 12.0948 17.3322 11.9891V11.8L17.4758 11.9335C17.5532 12.0058 17.6692 12.1337 17.7299 12.2227ZM6.77053 12.1004C6.6711 12.2339 6.63795 12.2506 6.62691 12.1782C6.59376 12.0336 6.66005 11.9279 6.78158 11.9279C6.89205 11.9279 6.89205 11.9279 6.77053 12.1004ZM3.24628 12.1226C3.24628 12.1727 3.19657 12.2061 3.13028 12.2061C3.03085 12.2061 3.02533 12.1949 3.08057 12.1226C3.11923 12.0781 3.16895 12.0392 3.19657 12.0392C3.22419 12.0392 3.24628 12.0781 3.24628 12.1226ZM18.6579 12.3173C18.6579 12.4174 18.6248 12.5009 18.5751 12.5231C18.4425 12.5732 18.4149 12.5064 18.4922 12.3173C18.5806 12.1004 18.6579 12.1004 18.6579 12.3173ZM21.0056 12.7679C20.6907 13.085 20.5195 13.1907 20.1218 13.2964C19.6854 13.4187 19.0446 13.3798 19.0446 13.2407C19.0446 13.2074 19.1882 13.1462 19.365 13.1017C19.5362 13.0627 19.8622 12.9459 20.0886 12.8402C20.3151 12.7345 20.5637 12.6511 20.641 12.6455C20.7184 12.6455 20.873 12.6121 20.978 12.5732C21.2873 12.4508 21.2928 12.4675 21.0056 12.7679ZM3.61086 13.2352C3.83182 13.8248 3.83182 13.8582 3.68267 14.0195C3.62191 14.0863 3.51143 14.281 3.44514 14.4534L3.31809 14.7649L3.19657 14.3088C3.02533 13.6468 2.95352 13.0905 3.02533 13.0182C3.05295 12.9904 3.08057 12.9014 3.08057 12.8291C3.08057 12.7178 3.10266 12.7011 3.25181 12.7178C3.412 12.7345 3.43409 12.7679 3.61086 13.2352ZM4.34554 12.9014C4.82612 13.0293 4.86478 13.1907 4.46706 13.3965L4.19087 13.53L4.13011 13.3575C4.03068 13.0905 3.96991 12.818 4.0141 12.818C4.03068 12.818 4.17982 12.8569 4.34554 12.9014ZM2.25198 13.3742C2.21884 13.6079 2.20779 13.6357 2.20227 13.4855C2.19674 13.2964 2.24646 13.0182 2.2796 13.0516C2.29065 13.0627 2.2796 13.2074 2.25198 13.3742ZM2.93142 14.4868C3.04742 14.9207 3.04742 14.9763 2.97009 15.1154C2.9259 15.1988 2.87066 15.2656 2.84856 15.2656C2.77675 15.2656 2.63313 14.726 2.59999 14.3422C2.58342 14.1252 2.58894 13.7748 2.61103 13.5634L2.65523 13.1795L2.73256 13.5967C2.77123 13.8248 2.85961 14.2253 2.93142 14.4868ZM16.5036 13.6691C16.5036 13.8026 16.3545 13.9861 16.2495 13.9861C16.1943 13.9861 16.1888 13.9528 16.2274 13.8415C16.2606 13.7636 16.2827 13.6246 16.2827 13.53C16.2827 13.3631 16.2827 13.3575 16.3932 13.4577C16.4539 13.5133 16.5036 13.6079 16.5036 13.6691ZM18.5475 13.5411C18.6082 13.6802 18.5972 13.7303 18.4867 13.9305C18.4149 14.0585 18.2713 14.2142 18.1718 14.2754L17.984 14.3922L18.1221 14.1196C18.1995 13.9695 18.2878 13.7414 18.321 13.6079C18.3983 13.3297 18.4536 13.313 18.5475 13.5411ZM19.7738 13.5522C19.702 13.6246 19.1993 13.6301 19.1717 13.5578C19.1551 13.5133 19.249 13.4966 19.481 13.5022C19.6633 13.5077 19.7959 13.53 19.7738 13.5522ZM1.94817 14.5869C1.90398 14.6314 1.81007 14.1697 1.81559 13.9305C1.82112 13.7136 1.83217 13.7414 1.89845 14.1252C1.93712 14.3644 1.95922 14.5758 1.94817 14.5869ZM17.7962 13.9416C17.7134 14.0974 17.7023 14.1085 17.6471 14.014C17.6084 13.9361 17.6139 13.8971 17.6968 13.8359C17.857 13.7191 17.8957 13.7525 17.7962 13.9416ZM17.161 14.3422C17.2659 14.7761 17.2494 14.8317 17.0174 14.8094C16.8185 14.7927 16.8074 14.7816 16.7909 14.5758C16.7743 14.4145 16.8019 14.331 16.8958 14.2309C16.9621 14.1586 17.0394 14.0974 17.0615 14.0974C17.0781 14.0974 17.1278 14.2087 17.161 14.3422ZM18.6911 14.6871C18.6579 14.815 18.6303 14.8206 18.2437 14.8206C18.0172 14.8206 17.8294 14.7983 17.8294 14.7761C17.8294 14.7538 17.9398 14.7037 18.0779 14.6648C18.2216 14.6259 18.3983 14.5202 18.5033 14.4145L18.6856 14.2309L18.7021 14.3922C18.7132 14.4868 18.7077 14.6147 18.6911 14.6871ZM4.1743 14.459C4.24058 14.5647 4.29582 14.6592 4.29582 14.6759C4.29582 14.6871 4.20744 14.8428 4.10249 15.0153C3.99753 15.1933 3.88153 15.4881 3.84839 15.6717C3.78762 15.9665 3.77658 15.9943 3.73239 15.8719C3.63848 15.6272 3.71029 14.7649 3.84286 14.4979C3.90915 14.37 3.98648 14.2643 4.00858 14.2643C4.03068 14.2643 4.10249 14.3533 4.1743 14.459ZM7.04672 14.9596L7.10196 15.2378L6.99701 15.1043C6.91967 15.0097 6.89205 14.8929 6.89758 14.6592C6.9031 14.3199 6.93624 14.3755 7.04672 14.9596ZM6.25681 14.904L6.533 14.9652L6.34519 15.0319C6.09661 15.121 6.00823 15.1154 5.8867 15.0041C5.75413 14.8873 5.75413 14.7371 5.8867 14.7927C5.93642 14.815 6.10214 14.8651 6.25681 14.904ZM4.99736 15.4937L5.48898 15.9999L5.10231 16.3837L4.71564 16.7675L4.42287 16.4783C4.16325 16.2224 4.13011 16.1612 4.13011 15.9554C4.13011 15.6995 4.23506 15.3546 4.37868 15.1321C4.43392 15.0542 4.47811 14.9874 4.48916 14.9874C4.49468 14.9874 4.72116 15.2155 4.99736 15.4937ZM17.2217 15.3323C17.2217 15.5215 17.1444 15.6105 17.0229 15.566C16.8958 15.5159 16.8351 15.438 16.8351 15.3045C16.8351 15.2322 16.8793 15.21 17.0284 15.21C17.1941 15.21 17.2217 15.2266 17.2217 15.3323ZM18.4922 15.349C18.4646 15.4213 18.3762 15.5882 18.2934 15.7106C18.1829 15.8719 18.1166 15.9276 18.0448 15.9053C17.6913 15.8052 17.7078 15.8219 17.7465 15.6105C17.8183 15.1988 17.8073 15.21 18.1884 15.21C18.5419 15.21 18.5419 15.21 18.4922 15.349ZM7.65435 15.388C7.60464 15.527 7.45549 15.566 7.2953 15.4881L7.14063 15.4102L7.36158 15.3713C7.48311 15.3546 7.60464 15.3323 7.62673 15.3268C7.65435 15.3268 7.6654 15.349 7.65435 15.388ZM3.30152 15.6216C3.30152 15.6661 3.34019 15.7662 3.38438 15.8552C3.48933 16.0555 3.44514 16.0944 3.30705 15.9276C3.19104 15.794 3.14685 15.4547 3.24628 15.5159C3.27943 15.5326 3.30152 15.5827 3.30152 15.6216ZM14.6807 16.2391C14.6034 16.3336 14.2996 16.456 14.2554 16.4115C14.2388 16.3948 14.3327 16.2613 14.4653 16.1167L14.7084 15.8497L14.7249 16.0054C14.736 16.0944 14.7139 16.1946 14.6807 16.2391ZM15.2663 16.3336C15.2 16.7842 14.8796 17.1013 14.4985 17.1013H14.2941L14.6366 16.8065C14.8299 16.6452 15.0453 16.406 15.1171 16.2724C15.2718 15.9943 15.316 16.011 15.2663 16.3336ZM5.60499 16.2836C5.58841 16.3281 5.56079 16.5283 5.5387 16.7286C5.5166 16.9344 5.47794 17.118 5.45032 17.1347C5.40613 17.1625 5.10784 17.029 4.96974 16.9177C4.9145 16.8732 4.96974 16.7898 5.21831 16.5339C5.52765 16.2224 5.66575 16.1334 5.60499 16.2836ZM16.929 16.3615C16.9124 16.4171 16.8848 16.5339 16.8627 16.6285C16.8295 16.7898 16.6362 17.0457 16.5533 17.0457C16.4926 17.0457 16.5368 16.9066 16.7135 16.5617C16.8572 16.278 16.9787 16.1668 16.929 16.3615ZM17.2217 16.3503C17.2659 16.4004 17.3377 16.4226 17.4206 16.4004C17.6029 16.3559 17.5863 16.4115 17.3875 16.5172C17.2273 16.6007 17.2217 16.6007 17.1389 16.4338C17.0505 16.2613 17.1002 16.2057 17.2217 16.3503ZM15.9733 16.8677C15.9181 17.0179 15.6088 17.2682 15.4707 17.2682C15.4209 17.2682 15.4541 17.207 15.559 17.1013C15.6695 16.99 15.7469 16.8343 15.791 16.6229L15.8629 16.3114L15.9402 16.5172C16.001 16.6618 16.0065 16.7675 15.9733 16.8677ZM7.32292 16.8287C7.44997 16.8788 7.44997 16.8844 7.19034 17.2237C7.04672 17.4184 6.91967 17.5853 6.90862 17.5964C6.89758 17.6131 6.82024 17.5519 6.73186 17.4684C6.53852 17.2849 6.49433 17.0902 6.59929 16.9289C6.74843 16.723 6.95282 16.6952 7.32292 16.8287ZM10.4826 17.2737L10.8361 17.3405L10.6483 17.4128C10.2174 17.5686 9.82524 17.474 9.60429 17.1625C9.41647 16.901 9.46619 16.8677 9.80867 17.0401C9.98543 17.1291 10.2892 17.2348 10.4826 17.2737ZM21.5856 17.0401C21.5083 17.1903 21.3205 17.2404 21.1658 17.1569C20.9062 17.0123 20.9559 16.9344 21.3149 16.9344C21.6243 16.9344 21.6409 16.94 21.5856 17.0401ZM4.36211 17.5853C4.57754 17.8857 4.97526 18.3585 5.24593 18.6366C5.75413 19.1651 5.81489 19.3542 5.38403 19.0538C4.85926 18.6923 4.28477 18.0192 3.96991 17.3906C3.86496 17.1847 3.85391 17.0457 3.94229 17.0457C3.95334 17.0457 4.14115 17.2904 4.36211 17.5853ZM5.99718 17.1792C6.03033 17.2515 6.13528 17.4017 6.22919 17.5129L6.40595 17.7132H6.24576C5.97509 17.7132 5.84251 17.5741 5.84251 17.2904C5.84251 17.0179 5.90328 16.9734 5.99718 17.1792ZM7.93607 17.4239L8.10179 17.6353L7.94159 17.9135C7.69302 18.3585 7.65435 18.3752 7.36158 18.1304C7.22349 18.0192 7.11301 17.9023 7.12406 17.8801C7.1572 17.7966 7.67645 17.2126 7.72064 17.2126C7.74826 17.2126 7.84216 17.3071 7.93607 17.4239ZM3.82629 17.8133C4.09696 18.2862 4.77088 19.0483 5.23488 19.3932L5.42822 19.5434L5.1686 19.8048C4.9145 20.0607 4.90345 20.0663 4.75983 19.9884C4.48916 19.8493 3.96991 19.3209 3.73239 18.9593C3.58876 18.7312 3.46724 18.6033 3.40648 18.6033C3.02533 18.6033 3.74343 19.6602 4.48916 20.1998L4.65488 20.3222L4.45049 20.4056C4.17982 20.5224 4.03068 20.5168 3.80972 20.3833C3.57772 20.2387 3.33466 19.7381 3.24076 19.2096C3.17447 18.8202 3.10266 18.6978 3.02533 18.8258C2.96456 18.9259 3.12476 19.7047 3.27943 20.0496C3.43409 20.3889 3.58876 20.578 3.80972 20.6949C4.03068 20.8117 4.19639 20.7894 4.54992 20.6003L4.87583 20.4278L5.15203 20.5224C5.51108 20.6504 5.55527 20.6949 5.4227 20.8006C5.11336 21.0453 4.87583 21.1288 4.46154 21.1288C3.94782 21.1288 3.60534 20.9897 3.23523 20.6225C2.62208 20.0106 2.42322 18.848 2.81542 18.0859C2.94247 17.8356 3.39543 17.3238 3.48933 17.3238C3.52248 17.3294 3.67162 17.5463 3.82629 17.8133ZM9.32257 17.8857C9.32257 17.9135 9.2618 18.0025 9.18447 18.0859L9.0519 18.2417L9.04637 17.8578V17.4684L9.18447 17.6576C9.2618 17.7633 9.32257 17.8634 9.32257 17.8857ZM14.1505 17.8356C13.9571 18.2305 13.703 18.492 13.5207 18.492C13.3661 18.492 12.9518 18.2472 12.7916 18.0692C12.6977 17.9635 12.7087 17.958 13.123 17.9635C13.4765 17.9635 13.5925 17.9357 13.8356 17.8133C13.9903 17.7299 14.1339 17.6353 14.156 17.602C14.1725 17.5741 14.2112 17.5463 14.2444 17.5463C14.272 17.5463 14.2333 17.6798 14.1505 17.8356ZM8.82542 18.0136C8.82542 18.3807 8.80884 18.4419 8.70389 18.5142C8.6376 18.5643 8.49951 18.6033 8.4056 18.6033H8.22331L8.41665 18.2862C8.5216 18.1137 8.60446 17.9524 8.60446 17.9302C8.60446 17.9079 8.62656 17.8245 8.6597 17.7466C8.75913 17.4796 8.82542 17.5908 8.82542 18.0136ZM16.1777 18.1471C16.0838 18.3196 15.7192 18.6255 15.4596 18.7423C15.2221 18.848 15.2221 18.848 15.1392 18.7423C15.0674 18.6366 15.0785 18.6255 15.3547 18.5031C15.5149 18.4308 15.6861 18.3362 15.7303 18.2973C15.8242 18.2083 16.1225 18.047 16.1888 18.047C16.2109 18.047 16.2053 18.0915 16.1777 18.1471ZM10.2948 18.3084C10.4439 18.3863 10.571 18.4586 10.582 18.4697C10.5931 18.4753 10.5102 18.6033 10.4053 18.759L10.2064 19.0316L9.86391 18.9704C9.6761 18.937 9.52143 18.887 9.52695 18.8647C9.53247 18.8202 9.99096 18.1582 10.0131 18.1582C10.0241 18.1582 10.1456 18.225 10.2948 18.3084ZM12.6093 18.5921C12.5043 18.6144 12.3607 18.5087 12.3607 18.3974C12.3607 18.3418 12.4049 18.3585 12.5319 18.4475C12.6645 18.5476 12.6811 18.581 12.6093 18.5921ZM6.05242 18.7145C5.93642 18.8703 5.92537 18.8758 5.82594 18.7868C5.72651 18.6923 5.73204 18.6867 5.9088 18.6255C6.17947 18.5254 6.19052 18.5309 6.05242 18.7145ZM11.2504 18.6644C11.5266 18.7256 11.5708 18.8035 11.3885 18.8981C11.1178 19.0371 10.7754 19.1206 10.6262 19.0817L10.4881 19.0483L10.6593 18.7979C10.803 18.5977 10.8582 18.5532 10.9466 18.581C11.0129 18.6033 11.1455 18.6422 11.2504 18.6644ZM6.89758 18.8536C7.11301 18.9871 7.32292 19.1095 7.35606 19.1206C7.45549 19.154 7.23453 19.4321 7.03015 19.5322C6.84786 19.6212 6.84234 19.6212 6.57719 19.421C6.42805 19.3153 6.26233 19.1762 6.20709 19.115C6.11318 19.0038 6.11318 18.9926 6.26785 18.8035C6.35071 18.6923 6.43909 18.6033 6.46119 18.6033C6.47776 18.6033 6.67662 18.7145 6.89758 18.8536ZM14.8299 18.9148C14.7802 18.9648 14.6752 18.8814 14.7139 18.8146C14.736 18.7813 14.7691 18.7813 14.8078 18.8202C14.8409 18.8536 14.852 18.8925 14.8299 18.9148ZM13.2445 19.1873C14.6531 19.2763 14.8686 19.3042 14.8851 19.3654C14.9183 19.4655 14.3769 19.7993 13.9626 19.9383C13.2666 20.1775 12.4546 20.0051 11.8746 19.4989L11.6868 19.3375L12.1508 19.2263C12.3994 19.1651 12.648 19.1262 12.6921 19.1373C12.7419 19.1484 12.9904 19.1707 13.2445 19.1873ZM6.0469 19.382C6.12423 19.4432 6.17395 19.4933 6.15738 19.4933C6.08004 19.4933 5.84251 19.3598 5.84251 19.3153C5.84251 19.243 5.89775 19.2597 6.0469 19.382ZM8.61551 19.5434C8.67627 19.599 8.09626 20.2721 7.99131 20.2721C7.84216 20.2721 7.82007 20.1886 7.93607 20.0385C7.99683 19.9661 8.09626 19.7993 8.16255 19.6713C8.2675 19.4655 8.30065 19.4432 8.4277 19.471C8.51055 19.4933 8.59341 19.5211 8.61551 19.5434ZM11.0129 19.6379C10.8748 19.8438 10.5986 19.9494 10.3666 19.8827C10.1235 19.8104 10.0075 19.7325 10.0628 19.6769C10.1014 19.6324 11.046 19.4488 11.0847 19.4766C11.0957 19.4822 11.0626 19.5545 11.0129 19.6379ZM15.8187 20.083C16.2772 21.0342 16.1556 21.7573 15.4983 22.0244C15.1779 22.1523 14.4985 22.1912 14.0565 22.1078L13.692 22.0411L13.6036 21.7407C13.5539 21.5738 13.4213 21.2511 13.3053 21.0231L13.0899 20.6059L13.2335 20.5725C13.8632 20.439 14.504 20.1775 14.9293 19.8883C15.0288 19.8159 15.1392 19.7881 15.2166 19.8048C15.3215 19.8326 15.3381 19.8215 15.3105 19.7492C15.2884 19.688 15.316 19.6268 15.3768 19.5767C15.5093 19.4766 15.559 19.5322 15.8187 20.083ZM6.73186 20.1052C6.94729 20.1664 7.14063 20.2276 7.1572 20.2387C7.21244 20.2999 6.85339 20.3945 6.47224 20.4223C6.20709 20.4445 5.94747 20.4223 5.67127 20.3611C5.09126 20.2331 5.07469 20.2165 5.29565 19.9661C5.4006 19.8549 5.50556 19.7269 5.52765 19.6824C5.56079 19.6212 5.64365 19.6435 5.95299 19.7993C6.1629 19.9049 6.5109 20.044 6.73186 20.1052ZM8.82542 20.0329C8.82542 20.4835 8.78675 20.528 8.49398 20.4278L8.26198 20.35L8.52713 20.0329C8.67627 19.8604 8.80332 19.7158 8.80884 19.7158C8.81989 19.7158 8.82542 19.8604 8.82542 20.0329ZM9.59876 20.5725C9.59876 20.6225 9.56009 20.6392 9.48828 20.6225C9.42752 20.6059 9.39438 20.5725 9.41095 20.5447C9.45514 20.4668 9.59876 20.489 9.59876 20.5725ZM13.1396 21.2956C13.2887 21.6072 13.4102 21.8742 13.4102 21.8964C13.4102 21.9187 13.2003 21.8352 12.9407 21.7073C12.5872 21.5293 12.4767 21.4458 12.5043 21.3846C12.5209 21.3401 12.5596 21.1677 12.5817 21.0064C12.6756 20.4557 12.7474 20.4946 13.1396 21.2956ZM12.3276 20.9229C12.2834 21.2456 12.2392 21.3012 12.1011 21.2122C12.0072 21.1566 12.0017 21.1176 12.0458 20.9062C12.0956 20.7004 12.1232 20.6615 12.2337 20.6615C12.3607 20.6615 12.3662 20.6726 12.3276 20.9229ZM9.58219 20.9396C9.72581 20.9396 9.78105 20.973 9.84734 21.1065C9.89705 21.2011 9.91362 21.3068 9.89153 21.3457C9.79762 21.5015 9.07952 22.5306 9.0298 22.5806C8.96351 22.653 9.03532 21.1176 9.11266 20.9786C9.15133 20.9062 9.20104 20.884 9.2839 20.9062C9.35019 20.9229 9.48828 20.9396 9.58219 20.9396ZM12.0458 21.4625C12.1784 21.5627 12.1674 21.5905 11.963 21.7184C11.6868 21.8853 11.6371 21.8575 11.7697 21.6072C11.9022 21.3624 11.9078 21.3568 12.0458 21.4625Z" fill="#212025"/>
</svg>
