<svg width="15" height="15" viewBox="0 0 15 15" fill="none" xmlns="http://www.w3.org/2000/svg">
<rect width="15" height="15" rx="2" fill="#8424DE"/>
<path d="M11.5787 4.47207C11.7353 4.62007 11.8266 4.82417 11.8327 5.03951C11.8388 5.25485 11.7591 5.4638 11.6112 5.62041L7.00704 10.4954C6.93242 10.5743 6.84275 10.6374 6.74332 10.681C6.6439 10.7246 6.53674 10.7479 6.42818 10.7494C6.31961 10.7509 6.21185 10.7307 6.11125 10.6898C6.01064 10.649 5.91925 10.5884 5.84246 10.5117L3.40496 8.07416C3.26144 7.92013 3.1833 7.71642 3.18702 7.50592C3.19073 7.29543 3.276 7.0946 3.42487 6.94573C3.57373 6.79687 3.77456 6.7116 3.98506 6.70788C4.19555 6.70417 4.39927 6.7823 4.55329 6.92582L6.40037 8.77182L10.4304 4.50457C10.5784 4.34803 10.7825 4.25666 10.9978 4.25057C11.2131 4.24448 11.4221 4.32415 11.5787 4.47207Z" fill="#F7F7F7"/>
</svg>
