<svg width="17" height="17" viewBox="0 0 17 17" fill="none" xmlns="http://www.w3.org/2000/svg">
    <g clip-path="url(#clip0_4016_893)">
        <path
            d="M7.96875 2.65625V1.0625C7.96875 0.921604 8.02472 0.786478 8.12435 0.68685C8.22398 0.587221 8.3591 0.53125 8.5 0.53125C8.6409 0.53125 8.77602 0.587221 8.87565 0.68685C8.97528 0.786478 9.03125 0.921604 9.03125 1.0625V2.65625C9.03125 2.79715 8.97528 2.93227 8.87565 3.0319C8.77602 3.13153 8.6409 3.1875 8.5 3.1875C8.3591 3.1875 8.22398 3.13153 8.12435 3.0319C8.02472 2.93227 7.96875 2.79715 7.96875 2.65625ZM12.75 8.5C12.75 9.34057 12.5007 10.1623 12.0337 10.8612C11.5667 11.5601 10.903 12.1048 10.1264 12.4265C9.34982 12.7482 8.49529 12.8323 7.67087 12.6683C6.84645 12.5044 6.08917 12.0996 5.4948 11.5052C4.90042 10.9108 4.49565 10.1536 4.33166 9.32913C4.16768 8.50471 4.25184 7.65018 4.57351 6.8736C4.89518 6.09701 5.43992 5.43325 6.13883 4.96625C6.83774 4.49926 7.65943 4.25 8.5 4.25C9.62679 4.25123 10.7071 4.69939 11.5038 5.49616C12.3006 6.29292 12.7488 7.37321 12.75 8.5ZM11.6875 8.5C11.6875 7.86957 11.5006 7.2533 11.1503 6.72912C10.8001 6.20494 10.3022 5.79639 9.7198 5.55513C9.13736 5.31388 8.49646 5.25076 7.87815 5.37375C7.25984 5.49674 6.69188 5.80032 6.2461 6.2461C5.80032 6.69188 5.49674 7.25984 5.37375 7.87815C5.25076 8.49646 5.31388 9.13736 5.55513 9.7198C5.79639 10.3022 6.20494 10.8001 6.72912 11.1503C7.2533 11.5006 7.86957 11.6875 8.5 11.6875C9.34511 11.6866 10.1554 11.3505 10.7529 10.7529C11.3505 10.1554 11.6866 9.34511 11.6875 8.5ZM3.87414 4.62586C3.97382 4.72554 4.10903 4.78155 4.25 4.78155C4.39097 4.78155 4.52618 4.72554 4.62586 4.62586C4.72554 4.52618 4.78155 4.39097 4.78155 4.25C4.78155 4.10903 4.72554 3.97382 4.62586 3.87414L3.56336 2.81164C3.46368 2.71196 3.32847 2.65595 3.1875 2.65595C3.04653 2.65595 2.91132 2.71196 2.81164 2.81164C2.71196 2.91132 2.65595 3.04653 2.65595 3.1875C2.65595 3.32847 2.71196 3.46368 2.81164 3.56336L3.87414 4.62586ZM3.87414 12.3741L2.81164 13.4366C2.71196 13.5363 2.65595 13.6715 2.65595 13.8125C2.65595 13.9535 2.71196 14.0887 2.81164 14.1884C2.91132 14.288 3.04653 14.344 3.1875 14.344C3.32847 14.344 3.46368 14.288 3.56336 14.1884L4.62586 13.1259C4.67522 13.0765 4.71437 13.0179 4.74108 12.9534C4.7678 12.8889 4.78155 12.8198 4.78155 12.75C4.78155 12.6802 4.7678 12.6111 4.74108 12.5466C4.71437 12.4821 4.67522 12.4235 4.62586 12.3741C4.5765 12.3248 4.5179 12.2856 4.45341 12.2589C4.38892 12.2322 4.3198 12.2185 4.25 12.2185C4.1802 12.2185 4.11108 12.2322 4.04659 12.2589C3.9821 12.2856 3.9235 12.3248 3.87414 12.3741ZM12.75 4.78125C12.8198 4.7813 12.8889 4.76761 12.9534 4.74095C13.0179 4.71428 13.0765 4.67518 13.1259 4.62586L14.1884 3.56336C14.288 3.46368 14.344 3.32847 14.344 3.1875C14.344 3.04653 14.288 2.91132 14.1884 2.81164C14.0887 2.71196 13.9535 2.65595 13.8125 2.65595C13.6715 2.65595 13.5363 2.71196 13.4366 2.81164L12.3741 3.87414C12.2998 3.94844 12.2491 4.04314 12.2286 4.14624C12.208 4.24935 12.2186 4.35623 12.2588 4.45336C12.299 4.55048 12.3672 4.63348 12.4546 4.69185C12.5421 4.75022 12.6449 4.78133 12.75 4.78125ZM13.1259 12.3741C13.0262 12.2745 12.891 12.2185 12.75 12.2185C12.609 12.2185 12.4738 12.2745 12.3741 12.3741C12.2745 12.4738 12.2185 12.609 12.2185 12.75C12.2185 12.891 12.2745 13.0262 12.3741 13.1259L13.4366 14.1884C13.486 14.2377 13.5446 14.2769 13.6091 14.3036C13.6736 14.3303 13.7427 14.344 13.8125 14.344C13.8823 14.344 13.9514 14.3303 14.0159 14.3036C14.0804 14.2769 14.139 14.2377 14.1884 14.1884C14.2377 14.139 14.2769 14.0804 14.3036 14.0159C14.3303 13.9514 14.344 13.8823 14.344 13.8125C14.344 13.7427 14.3303 13.6736 14.3036 13.6091C14.2769 13.5446 14.2377 13.486 14.1884 13.4366L13.1259 12.3741ZM3.1875 8.5C3.1875 8.3591 3.13153 8.22398 3.0319 8.12435C2.93227 8.02472 2.79715 7.96875 2.65625 7.96875H1.0625C0.921604 7.96875 0.786478 8.02472 0.68685 8.12435C0.587221 8.22398 0.53125 8.3591 0.53125 8.5C0.53125 8.6409 0.587221 8.77602 0.68685 8.87565C0.786478 8.97528 0.921604 9.03125 1.0625 9.03125H2.65625C2.79715 9.03125 2.93227 8.97528 3.0319 8.87565C3.13153 8.77602 3.1875 8.6409 3.1875 8.5ZM8.5 13.8125C8.3591 13.8125 8.22398 13.8685 8.12435 13.9681C8.02472 14.0677 7.96875 14.2029 7.96875 14.3438V15.9375C7.96875 16.0784 8.02472 16.2135 8.12435 16.3132C8.22398 16.4128 8.3591 16.4688 8.5 16.4688C8.6409 16.4688 8.77602 16.4128 8.87565 16.3132C8.97528 16.2135 9.03125 16.0784 9.03125 15.9375V14.3438C9.03125 14.2029 8.97528 14.0677 8.87565 13.9681C8.77602 13.8685 8.6409 13.8125 8.5 13.8125ZM15.9375 7.96875H14.3438C14.2029 7.96875 14.0677 8.02472 13.9681 8.12435C13.8685 8.22398 13.8125 8.3591 13.8125 8.5C13.8125 8.6409 13.8685 8.77602 13.9681 8.87565C14.0677 8.97528 14.2029 9.03125 14.3438 9.03125H15.9375C16.0784 9.03125 16.2135 8.97528 16.3132 8.87565C16.4128 8.77602 16.4688 8.6409 16.4688 8.5C16.4688 8.3591 16.4128 8.22398 16.3132 8.12435C16.2135 8.02472 16.0784 7.96875 15.9375 7.96875Z"
            fill="#212025" />
    </g>
    <defs>
        <clipPath id="clip0_4016_893">
            <rect width="17" height="17" fill="white" />
        </clipPath>
    </defs>
</svg>