<svg width="17" height="14" viewBox="0 0 17 14" fill="none" xmlns="http://www.w3.org/2000/svg">
<path d="M14.9354 1.16791C14.5424 0.797456 14.0758 0.503638 13.5623 0.303242C13.0488 0.102847 12.4985 -0.000196447 11.9427 2.8116e-07C11.3869 0.00019701 10.8367 0.10363 10.3233 0.304389C9.81 0.505148 9.34366 0.799296 8.95098 1.17002L8.43839 1.65912L7.93006 1.17108L7.92675 1.16797C7.53396 0.797692 7.06764 0.503973 6.55443 0.30358C6.04122 0.103188 5.49117 4.74593e-05 4.93567 4.74593e-05C4.38017 4.74593e-05 3.83012 0.103188 3.31691 0.30358C2.80369 0.503973 2.33738 0.797692 1.94459 1.16797L1.71623 1.38323C0.922954 2.13103 0.477295 3.14526 0.477295 4.20281C0.477295 5.26036 0.922954 6.27459 1.71623 7.02239L7.74311 12.7037L8.42371 13.3759L8.43994 13.3605L8.45755 13.3772L9.09523 12.7429L15.1637 7.0223C15.9558 6.2739 16.4006 5.25989 16.4006 4.20272C16.4006 3.14554 15.9558 2.13153 15.1637 1.38314L14.9354 1.16791ZM14.4158 6.31742L8.43994 11.9508L2.46395 6.31742C1.869 5.75657 1.53475 4.99589 1.53475 4.20273C1.53475 3.40958 1.869 2.6489 2.46395 2.08805L2.69234 1.87279C3.28701 1.31222 4.09346 0.997162 4.93444 0.996864C5.77543 0.996566 6.58213 1.31105 7.17725 1.8712L8.4361 3.07951L9.70095 1.87279C9.99554 1.59508 10.3453 1.37479 10.7302 1.2245C11.1151 1.0742 11.5276 0.996849 11.9443 0.996849C12.3609 0.996849 12.7734 1.0742 13.1583 1.2245C13.5432 1.37479 13.893 1.59508 14.1876 1.87279L14.4159 2.08802C15.01 2.64933 15.3436 3.40986 15.3436 4.20274C15.3435 4.99563 15.0099 5.75614 14.4158 6.31742Z" fill="#545454"/>
</svg>
