<svg width="22" height="22" viewBox="0 0 22 22" fill="none" xmlns="http://www.w3.org/2000/svg">
<path fill-rule="evenodd" clip-rule="evenodd" d="M8.07012 7.87546H11.9447V9.80542C12.5028 8.69543 13.9341 7.69811 16.0842 7.69811C20.2059 7.69811 21.1845 9.90766 21.1845 13.9616V21.4697H17.0116V14.8849C17.0116 12.5762 16.4535 11.2743 15.0326 11.2743C13.0619 11.2743 12.243 12.6774 12.243 14.8838V21.4697H8.07012V7.87546ZM0.914645 21.2924H5.08754V7.69811H0.914645V21.2924ZM5.68531 3.26545C5.68546 3.61521 5.6161 3.96152 5.48124 4.28425C5.34639 4.60697 5.14873 4.89967 4.89976 5.14534C4.39526 5.64674 3.71237 5.92739 3.00109 5.92567C2.29106 5.92519 1.60976 5.64525 1.10451 5.14638C0.856445 4.89988 0.659458 4.60685 0.524838 4.28408C0.390218 3.96132 0.320611 3.61516 0.320007 3.26545C0.320007 2.55918 0.601678 1.88317 1.10556 1.38451C1.61036 0.884974 2.29195 0.604912 3.00214 0.605225C3.71362 0.605225 4.39588 0.885852 4.89976 1.38451C5.4026 1.88317 5.68531 2.55918 5.68531 3.26545Z" fill="#212025"/>
</svg>
