<svg width="97" height="97" viewBox="0 0 97 97" fill="none" xmlns="http://www.w3.org/2000/svg">
<g clip-path="url(#clip0_3_13)">
<path d="M27.7577 29.7713C35.4368 21.2851 47.5737 18.4314 58.2988 22.5895C69.023 26.7504 76.1223 37.0638 76.163 48.542C76.1896 54.1379 74.512 59.6094 71.3532 64.2287C68.1944 68.848 63.7042 72.3961 58.4797 74.4013C47.7845 78.5044 35.6268 75.5883 27.888 67.0629" stroke="#F7F7F7" stroke-width="0.919146" stroke-linecap="round" stroke-linejoin="round"/>
</g>
<path fill-rule="evenodd" clip-rule="evenodd" d="M48.4901 72.807C61.9423 72.8076 72.8479 61.9029 72.8485 48.4507C72.8491 34.9985 61.9444 24.0929 48.4922 24.0923C39.5717 24.0919 31.771 28.8869 27.5275 36.0402L20.4581 36.0399C13.8589 36.0396 8.50899 41.3891 8.50871 47.9883C8.50842 54.5875 13.8579 59.9374 20.4571 59.9377L27.0079 59.938C31.1122 67.5971 39.1927 72.8066 48.4901 72.807Z" fill="#F7F7F7"/>
<path d="M48.9512 38.7988L48.9504 57.1817" stroke="#8424DE" stroke-width="1.83829" stroke-linecap="round"/>
<path d="M58.1423 47.9906L39.7594 47.9898" stroke="#8424DE" stroke-width="1.83829" stroke-linecap="round"/>
<defs>
<clipPath id="clip0_3_13">
<rect width="62.1791" height="62.1791" fill="white" transform="translate(48.3951 92.4375) rotate(-134.998)"/>
</clipPath>
</defs>
</svg>
