<svg width="26" height="22" viewBox="0 0 26 22" fill="none" xmlns="http://www.w3.org/2000/svg">
<path d="M25.8642 5.97654V17.2779C25.8642 18.3293 25.4465 19.3377 24.7031 20.0811C23.9596 20.8246 22.9513 21.2422 21.8999 21.2422H4.45702C3.40563 21.2422 2.3973 20.8246 1.65385 20.0811C0.910401 19.3377 0.492737 18.3293 0.492737 17.2779V5.97654L12.7757 13.2042C12.8977 13.2762 13.0368 13.3142 13.1785 13.3142C13.3201 13.3142 13.4592 13.2762 13.5812 13.2042L25.8642 5.97654ZM21.8999 0.62793C22.8753 0.627776 23.8166 0.987263 24.5436 1.63762C25.2706 2.28797 25.7323 3.18353 25.8404 4.15297L13.1785 11.6011L0.516523 4.15297C0.624602 3.18353 1.08631 2.28797 1.81331 1.63762C2.54032 0.987263 3.48158 0.627776 4.45702 0.62793H21.8999Z" fill="#8424DE"/>
</svg>
