<svg width="24" height="25" viewBox="0 0 24 25" fill="none" xmlns="http://www.w3.org/2000/svg">
<path d="M0.622261 9.5431L0.800349 9.80285C0.444173 9.79258 0.0712353 9.7587 0 9.60881C0 9.60162 0.00209516 9.59443 0.00419032 9.58725C0.20323 9.53591 0.373985 9.53283 0.622261 9.5431ZM2.51419 10.3336L2.60009 10.5903L2.39895 10.5985L2.44714 10.3357C2.46953 10.3357 2.4919 10.3357 2.51419 10.3336ZM3.1993 12.2073C3.02121 12.3675 2.88398 12.4743 2.77818 12.7176C2.63151 12.5995 2.55504 12.3655 2.5079 12.1037C2.45552 11.8182 2.43876 11.501 2.39895 11.2638L2.41152 11.1427L2.6179 11.1283L3.14378 12.1037L3.1993 12.2073ZM2.93322 9.80285C2.95934 9.62752 2.98623 9.4523 3.01388 9.27719L3.08197 9.27308C3.03169 9.44967 2.98141 9.62626 2.93322 9.80285ZM2.7897 7.41889L3.73252 7.6694C3.73098 7.68307 3.72958 7.69676 3.72833 7.71047C3.28939 8.02874 2.88398 8.16837 2.66608 8.74331L2.74884 7.46406L2.7897 7.41889ZM3.66966 6.09446C3.6089 6.68994 3.69481 6.95277 3.80061 7.32238C3.96822 7.43942 4.03527 7.51026 3.98079 7.68377C3.69795 7.5462 3.39834 7.40246 2.96464 7.42505C2.95407 7.41315 2.94359 7.40118 2.93322 7.38911C3.05474 6.91992 3.29149 6.63142 3.47481 6.25976L3.67071 6.09344L3.66966 6.09446ZM5.02523 5.30186L5.06608 5.29878C4.93618 5.7382 4.88381 6.75154 4.65648 7.154C4.11907 6.90452 4.12955 5.82342 4.73086 5.39632L5.02523 5.30186ZM4.52449 8.55645L4.97704 9.03797C4.79895 9.5739 4.46268 9.97739 4.32021 10.5985L4.05308 10.578C3.82471 9.95275 4.39564 8.93427 4.49306 8.47843L4.91209 8.52565C4.96447 8.65399 5.01475 8.78233 5.06608 8.91169L4.52449 8.55645ZM5.76272 5.29776C5.71663 5.81829 5.83396 6.0883 5.86539 6.49076C5.5993 6.62423 5.33217 6.75565 5.06608 6.88809C5.11551 6.34928 5.24722 5.82081 5.45683 5.32034L5.76272 5.29776ZM6.07281 4.50721L6.13252 4.5031L6.04243 4.75669L5.86539 4.76799L6.00157 4.6109L6.07281 4.50721ZM6.13252 6.93532L5.33217 7.41786C5.34893 7.12628 5.72815 6.73306 6.04557 6.62423L6.1189 6.66325L6.13252 6.93532ZM6.66678 5.10987C6.61755 5.37886 6.56936 5.64683 6.52222 5.91582L6.37241 6.00822L6.2928 6.09344C6.14823 5.89426 6.11157 5.40556 6.14299 5.0339L6.66678 5.10987ZM7.19895 4.50413C7.19895 4.5144 7.19686 4.52261 7.19581 4.53082L6.99153 4.72281C6.85535 4.77415 6.83859 4.77209 6.66678 4.76593C6.68878 4.67867 6.71392 4.5914 6.73802 4.50413H7.19895ZM7.73322 3.44459L7.49437 3.97333L6.66678 3.91481L6.66993 3.87169C7.01039 3.71769 7.30895 3.53494 7.73217 3.44356L7.73322 3.44459ZM7.30162 4.82035L7.38961 4.76901L7.46608 5.0339L7.19895 4.98256L7.30162 4.82035ZM7.9993 5.60371C7.68189 5.72486 7.24295 5.69098 6.98839 5.82958C6.9701 5.72345 6.95159 5.61736 6.93287 5.51131L7.09838 5.29878C7.36761 5.40145 7.63684 5.50617 7.90502 5.60987L7.9993 5.60371ZM7.31733 6.08009L6.95487 6.09344C6.94649 6.05648 6.9402 6.01952 6.93287 5.98153C7.18743 5.87989 7.61484 5.87065 7.9993 5.82855L7.59389 6.04724L7.31733 6.08009ZM8.26539 6.08009C7.96054 6.15504 7.66827 6.4189 7.46818 6.62423C7.42942 6.38399 7.89978 5.961 8.12501 5.82855C8.22453 5.91582 8.23501 5.90658 8.26539 6.08009ZM8.79965 2.91482L8.79546 2.95589L8.4749 3.14583L7.9993 3.17971L8.00349 3.13864L8.79965 2.91482ZM8.36805 3.70948L8.26539 3.56061C8.50633 3.36246 9.03745 3.47128 9.33287 3.50106L8.36805 3.70948ZM10.7544 2.9292C11.1997 2.96513 11.6072 3.0678 11.9172 3.25773L11.999 3.2526L11.9497 3.32036L11.5234 3.44356C11.2667 3.40866 11.01 3.3717 10.7544 3.33576L9.06573 3.10065L9.06993 3.06677C9.62122 2.93845 10.1891 2.89139 10.7544 2.9292ZM12.528 2.78957L12.4337 2.91482C12.1781 2.8969 11.9337 2.80468 11.7318 2.64994L12.5322 2.74953L12.528 2.78957ZM13.9485 3.76902L14.1695 3.68689L14.399 3.87991C14.3675 4.10064 14.1507 4.28134 13.9841 4.49592L13.8563 4.50413C13.5085 3.93945 13.0696 3.32242 12.2996 3.10476L12.2661 3.03802L12.5772 2.91482C13.1 3.09346 13.5357 3.36451 14.0208 3.52057C14.0836 3.66943 14.0648 3.61913 13.9485 3.76902ZM14.5917 5.02466L14.5309 4.96614L14.399 4.97538L14.6189 4.77004L14.5917 5.02466ZM14.8274 7.94866C15.1878 8.25461 15.28 8.69814 15.1302 9.27308C14.9751 8.93222 14.8211 8.59034 14.665 8.24948C14.7174 8.1735 14.7667 8.09753 14.818 8.02155C14.8211 7.99691 14.8232 7.97227 14.8274 7.94866ZM14.9322 5.56675L14.928 5.61603L14.7384 5.82855L14.665 5.6879C14.7792 5.48769 14.6965 5.5955 14.8463 5.57496L14.9322 5.56675ZM15.1543 5.56367L15.9986 5.87065C15.9972 5.89811 15.9948 5.92551 15.9913 5.95278C15.92 6.00104 15.8488 6.04724 15.7776 6.09344L14.9322 5.78749L14.9395 5.70432L15.1543 5.56367ZM16.799 6.62423L16.3307 6.31931L16.2657 6.19611C16.469 6.0729 16.4396 6.07906 16.6544 6.12013C16.7015 6.28851 16.7508 6.45688 16.799 6.62423ZM17.065 6.52362L16.9708 6.62423C16.8576 6.56674 16.8377 6.49384 16.799 6.35832L17.043 6.46304L17.065 6.52362ZM16.866 5.7649L16.799 5.77003C16.8723 5.70124 16.9456 5.63246 17.021 5.56469C16.9687 5.63143 16.9163 5.69816 16.866 5.7649ZM18.1325 7.09754L18.0016 7.154C17.7635 7.02332 17.5257 6.89225 17.2882 6.76078C17.2136 6.66167 17.1392 6.56242 17.065 6.46304C17.4348 6.19611 17.4485 6.50616 17.7973 6.67557L18.1325 7.09754ZM18.3986 7.33162L18.1325 7.23614L18.2928 7.154L18.3986 7.33162ZM18.0739 7.75872C18.1702 7.94866 18.1702 7.89527 18.3986 7.86652L17.989 8.21354L17.5983 7.48254L17.6035 7.43737C17.8916 7.37679 17.9838 7.47844 18.2656 7.5195L18.3735 7.68993L18.0739 7.75872ZM18.1325 8.23408L18.6657 7.94866C18.5589 8.18479 18.4196 8.30594 18.2551 8.47843L18.1325 8.23408ZM19.199 9.24536C19.0544 9.36754 18.9601 9.40655 18.6867 9.42914L18.9067 9.45275L18.9025 9.49074L18.1514 9.80285L18.1325 8.8583L18.65 8.25769L18.7443 8.21354L19.199 9.24536ZM18.9318 7.79568C20.4047 7.39322 20.1198 8.15913 19.4629 8.74331C19.2849 8.42812 19.1078 8.1119 18.9318 7.79568ZM20.2654 7.94866C19.7227 10.4476 19.618 10.5842 17.6988 11.6581C17.6666 11.6076 17.6331 11.558 17.5983 11.5092L17.6663 11.2299C18.9182 10.8809 19.6295 10.2382 19.5551 8.78335L20.1826 7.9928L20.2654 7.94866ZM20.3303 7.94866C20.3094 7.86242 20.2884 7.77617 20.2654 7.68993L20.4644 7.68377L20.3303 7.94866ZM17.065 10.3788L17.0839 10.1026L17.1007 9.8665L17.285 9.80593C17.2945 9.80593 17.3028 9.80388 17.3112 9.80285C17.3636 10.116 17.3112 10.347 17.2065 10.5985C17.1164 10.5421 17.0986 10.5184 17.065 10.3788ZM15.9986 12.6971L16.0028 12.6509L16.3527 11.8306L16.426 11.6581L17.042 11.6991C17.0514 11.7443 17.0577 11.7885 17.0608 11.8306C17.0881 12.1427 16.9781 12.3921 16.865 12.7176L15.9986 12.6971ZM16.2657 13.7607L16.2731 13.35L16.2835 13.2474L16.734 13.2802L16.799 13.2751C16.6952 13.4424 16.5926 13.6098 16.491 13.7782L16.2657 13.7607ZM16.0017 12.0462L16.029 12.0328L16.2416 11.925L16.2657 11.923L16.2343 12.0328L16.1096 12.4527L15.9986 12.079L16.0017 12.0462ZM15.5859 13.3654L15.4654 13.2474C15.5827 13.3275 15.5062 13.2494 15.5859 13.3654ZM14.9322 13.0503C15.082 12.9579 15.2443 12.9866 15.4664 12.9887L15.4004 13.2012C15.2171 13.273 15.1909 13.2464 14.9845 13.2248L14.9322 13.0503ZM15.259 14.042L15.4654 14.5205C15.3062 14.6262 15.1459 14.7309 14.9866 14.8377C14.8442 14.6457 14.9992 14.1088 15.259 14.042ZM14.7321 12.3788L14.665 12.3839L14.753 12.1878L14.7321 12.3788ZM15.5 12.4527L15.4654 12.4312L15.5827 12.1889L15.6215 12.1878L15.7325 12.4425L15.5 12.4527ZM17.3468 9.0082L17.3322 8.91887C17.4024 8.83469 17.4474 8.78233 17.5679 8.74434L17.5993 8.90039C17.5469 8.93427 17.4945 8.96713 17.4432 9.00204L17.3468 9.0082ZM17.3322 9.65501C17.284 9.71764 17.1981 9.75254 17.1373 9.80285L17.065 8.47843L17.3322 9.65501ZM16.843 11.4312C17.0189 11.3347 17.0441 11.424 17.065 11.657H16.5318L16.5413 11.5749L16.843 11.4312ZM16.5811 10.6991L16.7015 10.5985L16.799 10.769L16.7539 10.8634L16.5318 10.8377L16.5811 10.6991ZM16.5318 11.4014L16.2542 11.6581L16.073 11.6283L15.9997 11.6355C16.0416 11.5544 16.0856 11.4733 16.1285 11.3932L16.5318 11.4014ZM15.5261 11.2505C15.4151 11.1745 15.4947 11.1848 15.4738 11.1273L15.5261 11.2505ZM16.3663 10.0677L15.4654 9.60983C15.5073 9.00409 15.5827 8.308 15.522 7.68377C16.2165 7.93018 16.8398 9.03797 16.3663 10.0677ZM15.7325 10.0677C15.9536 10.1827 15.942 10.2874 16.249 10.3798C16.3024 10.5759 16.2207 10.654 16.0929 10.8624L15.766 10.8501C15.699 10.501 15.7723 10.3008 15.7325 10.0677ZM15.7933 11.7813C15.6812 11.7053 15.7618 11.7156 15.7409 11.6581L15.7933 11.7813ZM17.5983 9.23099L17.6014 9.18171L17.8423 9.0082C17.8842 9.27924 17.8685 9.73098 17.8057 10.0677C17.6632 9.95891 17.637 9.49895 17.5983 9.23099ZM17.5983 10.0677C17.6527 9.97944 17.7072 9.89114 17.7596 9.80285L17.6653 10.0636L17.5983 10.0677ZM19.1539 9.27616L19.199 9.27308C19.2115 10.2885 18.5725 10.4733 17.7323 10.8542L17.5983 10.8634L18.122 9.79977L19.1539 9.27616ZM17.5721 7.29261C17.5804 7.3193 17.5899 7.34497 17.5972 7.37166L17.5312 7.41889L17.3311 7.154L17.5721 7.29261ZM17.3311 7.73408L17.3385 7.68788C17.358 7.68635 17.3776 7.68498 17.3971 7.68377L17.5983 7.94866C17.4432 7.87679 17.4181 7.85933 17.3311 7.73408ZM17.5972 8.41169L17.2379 8.74331L16.4658 7.64476L15.4643 6.79261L15.6843 6.62423C16.1694 6.82957 17.0179 7.22074 17.1887 7.70944C17.2442 7.86858 17.0525 7.99999 17.1824 8.13243C17.3374 8.29054 17.4924 8.17761 17.5983 8.41067L17.5972 8.41169ZM15.347 10.0677L15.4287 10.0996L15.4643 10.8634L15.3397 10.8347C15.2223 10.7495 15.1406 10.3552 15.2475 10.1838L15.347 10.0677ZM14.7562 11.3963L14.8421 11.3932L14.9311 11.6006L14.7949 11.6519L14.664 11.6581C14.6954 11.5708 14.7268 11.4835 14.7562 11.3963ZM14.5131 15.6324L14.3979 15.2453C14.5624 15.1991 14.7258 15.1529 14.8903 15.1047L14.9322 15.1026C14.93 15.1145 14.9283 15.1265 14.9269 15.1385L14.5131 15.6324ZM14.1308 14.5728C14.18 14.4168 14.2146 14.3932 14.3036 14.3069L14.377 14.3357L14.3979 14.4034L14.2334 14.5615L14.1308 14.5728ZM14.2565 14.8377L14.1308 14.7022L14.3979 14.5728L14.3288 14.8326L14.2565 14.8377ZM13.9757 16.0389C13.938 16.0102 13.9024 15.9804 13.8647 15.9496L13.9464 15.9445L14.3581 15.6324L14.3979 15.9506L14.0826 16.1621L13.9757 16.0389ZM13.9967 19.0738C13.3545 19.1005 12.9701 18.9403 12.4463 18.8952L11.846 17.7319L11.7308 17.6149C12.7385 17.4979 13.3723 17.0215 14.1193 16.6919C14.3832 16.9383 14.9814 18.1929 14.4545 18.7484C14.3288 18.9383 14.1884 18.9578 13.9967 19.0738ZM11.2395 17.7668L11.4804 17.7514C11.8439 17.9907 12.0911 18.4188 12.265 18.812L11.1976 18.5091C11.2772 18.2443 11.3107 17.9753 11.2395 17.7668ZM10.4726 16.7669L11.6753 16.427L13.5651 16.6077L13.5986 16.7011C13.0361 16.9496 12.396 17.159 11.7507 17.4794C11.0519 17.5338 10.8833 17.2781 10.3993 17.1098L10.4726 16.7669ZM10.3983 18.0153L10.4223 17.7853L10.8822 17.7514C10.9199 17.9516 10.9598 18.0636 10.9032 18.2812L10.3983 18.0153ZM9.86399 18.4301L10.0431 18.3336C10.2631 18.1909 10.4276 18.3808 10.6643 18.4557L10.5701 18.5461L9.86399 18.4301ZM10.3825 18.0163C10.3244 17.991 10.2665 17.9653 10.2086 17.9393L10.1311 17.7514L10.3983 17.7679L10.3825 18.0163ZM9.59791 18.0163L9.86504 18.2412C9.86504 18.3798 9.85247 18.3644 9.81999 18.5461L9.59791 18.0163ZM8.9065 17.0235C9.15688 16.9486 9.49 16.965 9.86504 16.9568L9.51619 17.2217L8.7986 17.1529L8.9065 17.0235ZM8.26539 3.74541C8.76089 3.28135 10.0033 3.41995 10.3144 3.71461L10.3983 3.70742C9.98446 4.08627 9.34334 4.12939 8.94945 4.50413C8.64042 4.3029 8.38481 4.17354 8.26539 3.74541ZM10.9891 4.50413L11.1986 4.73719C11.0121 4.74745 10.8162 4.75875 10.6203 4.77517C10.1793 4.81213 9.74352 4.87682 9.43867 5.03185L9.39887 5.0339C9.37683 5.00004 9.35483 4.96616 9.33287 4.93226C9.83328 4.67499 10.3857 4.52982 10.9503 4.50721L10.9891 4.50413ZM12.0283 3.17971C12.3729 3.51851 12.8873 3.71974 13.0654 4.23924C12.3426 3.90968 11.23 3.91481 10.6664 3.39018C11.163 3.49387 11.5862 3.45486 12.0283 3.17971ZM12.2661 5.0339L13.255 5.16737L13.3325 5.16121L12.5395 5.82855C12.4138 5.58318 12.3845 5.25053 12.2661 5.0339ZM13.5368 6.16736L13.3325 6.13656L13.5986 6.09344L13.5368 6.16736ZM13.3325 5.53389L13.5766 5.29878L13.5986 5.56367L13.4216 5.52568L13.3325 5.53389ZM13.8165 14.3018L13.6992 14.3069L13.5986 14.2145L13.6761 14.1149L13.8647 14.0431L13.8165 14.3018ZM13.6038 14.7864C13.6353 14.7494 13.6688 14.7125 13.7023 14.6755L13.7107 14.5728L13.8657 14.8141L13.5986 14.8377L13.6038 14.7864ZM13.498 15.6324L13.3325 15.4373L13.8657 15.3675L13.6112 15.6242L13.498 15.6324ZM13.5986 16.427L13.0654 16.3644L13.4425 16.1621L13.5986 16.427ZM13.2246 15.6796L13.3325 15.7802L12.946 15.8767L12.5322 15.8973L13.1083 15.6324L13.2246 15.6796ZM11.7329 4.23924C12.044 4.24746 12.3729 4.32446 12.5322 4.50413C12.3174 4.4836 11.9309 4.51748 11.8334 4.35526L11.7329 4.23924ZM12.0031 5.29878C12.155 5.42917 12.2085 5.58318 12.1812 5.82855C11.9466 5.7495 12.0073 5.49796 12.0031 5.29878ZM12.265 6.9692L12.2745 6.92403C12.8056 6.81109 12.9198 6.99179 12.6778 7.154C12.4683 7.12526 12.3729 7.04825 12.265 6.9692ZM12.9491 13.7771L13.0654 13.8059C13.0638 13.8182 13.0624 13.8305 13.0612 13.8429L12.7993 14.042L12.9082 13.7802L12.9491 13.7771ZM12.8024 7.31519L13.0015 7.154L13.0654 7.41889L12.7993 7.36139L12.8024 7.31519ZM13.5986 14.3993L12.9543 14.5646L12.7993 14.5718C12.7993 14.5636 12.8014 14.5543 12.8035 14.5461C13.0444 14.4989 13.1995 14.4209 13.3419 14.3069L13.5682 14.348L13.5986 14.3993ZM13.1387 13.7771L13.0654 13.6303L13.2487 13.5123L13.3325 13.5564L13.2278 13.77L13.1387 13.7771ZM11.4657 15.6098L11.7832 15.3675L12.7658 15.4496L12.7993 15.5215L12.1351 15.8973C11.889 15.8572 11.6763 15.7504 11.5485 15.6036L11.4657 15.6098ZM10.9723 15.6324L11.4647 15.8973L10.6654 15.7586C10.768 15.7176 10.8697 15.6745 10.9723 15.6324ZM10.9325 16.1734C10.9314 16.1946 10.9303 16.2159 10.9294 16.2371L10.7775 16.3192L10.6654 16.3336L10.6696 16.2699C10.7859 16.119 10.767 16.1693 10.9325 16.1734ZM9.67543 5.39016C9.65017 5.36359 9.62468 5.33723 9.59895 5.3111C9.86399 5.16942 10.282 5.10166 10.6926 5.06983C11.031 5.04211 11.3641 5.03903 11.603 5.0339L11.7329 5.82855C11.384 5.79159 11.0519 5.74642 10.6926 5.73102C10.3822 5.71594 10.0709 5.72693 9.76237 5.76387C9.73397 5.63917 9.70499 5.5146 9.67543 5.39016ZM10.0672 16.0215L10.1322 16.1344L10.0693 16.3716L9.33287 16.427C9.41144 16.1909 9.52876 16.0769 9.65552 15.8973L10.0672 16.0215ZM9.15792 15.1026C8.8227 15.0841 8.36386 14.8439 8.26539 14.5728L9.33287 14.8387L9.15792 15.1026ZM9.53296 15.0882L9.33287 15.1026L9.33916 15.0389L9.56124 14.8377C9.55077 14.9209 9.54238 15.004 9.53296 15.0882ZM8.79965 5.3994L9.1244 5.29878L9.33287 5.55545L9.11288 5.56367L8.79965 5.3994ZM8.79546 16.7751C8.77765 16.8326 8.76194 16.8911 8.74518 16.9496C8.71924 16.9509 8.69338 16.9533 8.66766 16.9568C8.62275 16.8684 8.57771 16.7801 8.53252 16.6919L8.79965 16.7186L8.79546 16.7751ZM8.94317 15.6324L9.56543 15.7556L9.59895 15.8377L9.11602 16.427L8.53252 16.3428L8.94317 15.6324ZM13.5986 7.32854L13.7191 7.15503L13.7631 7.154L14.0983 7.23614L14.1318 7.28336L13.7578 7.41889C13.7048 7.38866 13.6517 7.35855 13.5986 7.32854ZM14.3204 6.47228L14.1318 6.35935C14.3235 6.42814 14.2135 6.35011 14.3204 6.47228ZM14.2596 7.68377L14.1318 7.577L14.399 7.41889L14.2596 7.68377ZM14.1318 9.53797L14.5467 9.63858C14.6588 9.6817 14.6556 9.693 14.665 9.80285C14.4869 9.73612 14.1894 9.68991 14.1318 9.53797ZM14.1737 8.81621L14.2303 8.74434L14.399 9.0082L14.1318 8.95686L14.1737 8.81621ZM8.77137 17.5338L8.79965 17.6036L8.44033 17.7381L8.26539 17.7514L8.26958 17.7155L8.39214 17.5276C8.56185 17.4506 8.56604 17.5009 8.77137 17.5338ZM7.9993 4.23822C8.23186 4.40865 8.29262 4.61809 8.25596 5.29878C8.10301 5.10679 8.00978 4.69817 7.9993 4.23822ZM8.15225 3.70948L8.13339 3.90147L8.00035 3.91071L8.15225 3.70948ZM7.9993 3.97436C7.99197 4.03801 7.98673 4.10167 7.97835 4.16532L7.73217 4.12118L7.9354 3.97847L7.9993 3.97436ZM7.9993 19.3418L8.1313 17.9927L9.06573 17.7514L8.08311 19.2925L7.9993 19.3418ZM8.0653 15.7155L8.20882 15.6324C8.33976 15.7843 8.22244 16.003 8.09882 16.1621C7.99616 16.0677 7.98464 16.0081 8.01187 15.7936L8.0653 15.7155ZM7.19895 15.5862L7.50589 15.1026L7.99825 15.386C7.83064 15.6447 7.65989 15.9034 7.49018 16.1621C7.33723 16.0287 7.24295 15.8315 7.19895 15.5862ZM7.19895 17.6611L7.69131 17.2217L7.92283 17.2422L7.9993 17.3654C7.97835 17.4948 7.95949 17.6231 7.94064 17.7514L7.19895 17.6611ZM6.39965 17.3018L6.98629 16.9568L7.43256 17.0256L7.46608 17.0862L6.99572 17.4866C6.76107 17.4629 6.60498 17.4013 6.48241 17.2966L6.39965 17.3018ZM6.32108 16.7894L6.53584 16.6919L6.62802 16.7114L6.66574 16.7545L6.04452 16.9568L5.86643 16.8952L6.32108 16.7894ZM5.5993 16.541L5.75644 16.1683C6.04766 16.1313 6.11681 16.272 6.33575 16.3613L6.3986 16.4558L6.07281 16.6744L5.80777 16.6919L5.5993 16.541ZM5.06504 17.6282L5.45369 16.9568C5.71139 16.9568 5.74282 16.9773 5.84863 17.1108C5.89577 17.1888 5.85491 17.1467 5.75225 17.1642L5.72815 17.3952L6.13252 17.4568C6.0529 17.6508 6.04033 17.6252 5.92091 17.7484C5.52283 17.7689 5.34265 17.695 5.06504 17.6282ZM4.61667 16.6919L5.29446 16.8921L5.33217 16.9712L4.89743 17.4866L4.26574 17.2833L4.61667 16.6919ZM2.00506 15.9753L2.01344 15.8962L2.39162 16.1816L2.42409 16.2576C1.63736 16.8531 2.84103 18.7935 4.21021 17.5358L4.79895 17.7679C4.57268 18.1631 4.18402 18.3192 3.77442 18.543C2.79494 18.6231 1.42471 17.0554 2.00506 15.9753ZM2.91855 16.2463L2.93322 16.426C2.85989 16.3716 2.78656 16.3192 2.71532 16.2648L2.66608 16.1611L2.91855 16.2463ZM4.26574 17.3716L3.77861 17.7412C2.81903 17.8397 2.43038 17.1888 2.39895 16.389L2.58647 16.1673L2.66818 16.1611C3.15111 16.5338 3.57852 17.1026 4.23431 17.2905L4.26574 17.3716ZM3.33653 13.5112C3.24959 13.4496 3.24435 13.4188 3.20035 13.3141L3.38263 12.6344L3.59529 12.4517L3.73252 12.6488L3.33653 13.5112ZM3.20035 13.7402L3.62043 12.7659L3.70633 12.7166C3.90013 13.0513 4.18088 13.2032 4.26574 13.6581L3.633 14.3059C3.43625 14.1622 3.28572 13.9663 3.1993 13.7412L3.20035 13.7402ZM3.99965 14.5513L4.53392 14.041L4.79895 14.5718C4.53255 14.5639 4.26611 14.5571 3.99965 14.5513ZM5.33217 9.19711C5.0797 9.72585 4.74343 10.0852 4.5423 10.5975C4.4543 10.1324 4.98437 9.46404 5.15513 9.05337L5.23684 9.00717L5.33217 9.19711ZM5.33217 7.73921C5.7292 7.61909 5.99529 7.39938 6.27918 7.15298L6.39965 7.50616L6.06233 7.94763L5.33217 7.73921ZM6.66574 7.76693L6.52117 7.94763L6.39965 7.9271L6.40175 7.89835L6.64478 7.68274L6.66574 7.76693ZM6.45622 6.62526L6.49812 6.62321L6.66574 6.9692L6.60288 7.15298C6.3588 7.02772 6.36822 6.87885 6.45622 6.62526ZM6.40594 14.3059L6.65212 14.4794L6.39965 14.3706C6.40107 14.349 6.40317 14.3274 6.40594 14.3059ZM6.40175 14.5718L6.66574 14.6837C6.66416 14.694 6.66277 14.7042 6.66155 14.7145L6.09585 15.1016C5.93348 15.0297 5.91357 14.887 5.86539 14.732L5.87062 14.6991L6.40175 14.5718ZM5.61292 14.041L5.86643 14.1416L5.73025 14.2186L5.5993 14.233L5.61292 14.041ZM5.5993 8.74331C5.91986 8.83161 5.81824 8.77206 5.83186 9.00717C5.6852 8.92298 5.67473 8.88397 5.5993 8.74331ZM5.5993 13.4753L5.6213 13.2464C5.74596 13.3316 5.78891 13.3819 5.86643 13.5112C5.77742 13.4991 5.68837 13.4871 5.5993 13.4753ZM6.13357 10.1663C6.033 10.2926 6.03719 10.2587 5.86643 10.3316L5.98272 10.0667L6.13357 10.1663ZM6.13357 9.1006L5.96595 9.27205C5.79834 9.17965 5.87691 9.21661 5.95234 9.04516L6.05186 9.00717L6.13357 9.1006ZM6.11157 8.64988L5.86643 8.4774C6.055 8.54824 6.011 8.50512 6.11157 8.64988ZM5.5993 13.5112L5.86643 13.7197C5.73025 13.7166 5.65692 13.6878 5.5993 13.5112ZM6.39965 13.501L6.2907 13.5112L6.19747 13.3429L6.13252 13.2607L6.27708 13.2464C6.31794 13.3316 6.35775 13.4168 6.39965 13.501ZM6.25299 8.59547L6.13252 8.47843C6.24985 8.55851 6.17233 8.48048 6.25194 8.5965L6.25299 8.59547ZM6.2687 12.9589L6.13252 12.6817L6.19014 12.4538L6.22366 12.4517L6.39965 12.9815C6.35602 12.9739 6.31237 12.9663 6.2687 12.9589ZM5.56997 16.042L5.5993 16.0769L5.50397 16.427C5.39178 16.3814 5.29298 16.309 5.21652 16.2165C5.14005 16.124 5.08835 16.0143 5.06608 15.8973L5.56997 16.042ZM4.79895 16.427L5.06608 16.659C4.89533 16.5851 4.88485 16.5882 4.79895 16.427ZM5.25989 14.078L5.29131 14.3069L5.06608 14.042L5.25989 14.078ZM4.9959 15.3172L4.79895 14.8377C5.03256 14.925 5.21484 15.1868 5.33322 15.3675L4.9959 15.3172ZM5.20541 10.6006L5.27141 10.5985L5.07656 10.8634C5.04513 10.7977 5.08389 10.7351 5.19179 10.6581L5.20541 10.6006ZM5.06608 12.8778L5.01266 12.9825L4.85971 12.8665C4.83943 12.8244 4.81918 12.7823 4.79895 12.7402L5.00847 12.7176L5.06608 12.8778ZM3.1993 15.1026C3.73357 15.4435 4.64182 15.7597 4.79895 16.427C4.16552 16.117 3.61702 15.6629 3.1993 15.1026ZM4.58525 14.8459L4.79895 15.1026L4.26574 14.8377L4.58525 14.8459ZM6.53793 15.6324L6.13252 15.232L6.84173 14.5728L6.93287 15.2987L6.53793 15.6324ZM6.93287 16.0749L7.00306 15.9024L7.09734 15.8973L7.19895 16.1621L6.93287 16.0749ZM7.29219 15.1026L7.19895 14.8377L7.39275 14.8726L7.29219 15.1026ZM6.93287 6.18071L6.93496 6.15709C7.02296 6.13656 7.11096 6.11602 7.19895 6.09344L7.01458 6.35832L6.93287 6.18071ZM4.24374 11.6581L3.99965 11.1283C4.31288 11.195 4.26155 11.4137 4.24374 11.6581ZM3.5911 11.923C3.36272 11.7679 3.21711 11.4589 3.1993 11.1283C3.66757 11.2361 3.64138 11.4168 3.73357 11.8357L3.5911 11.923ZM3.31558 10.54C2.97512 10.2248 3.47062 8.96405 3.68852 8.6735C3.80375 8.53079 3.94832 8.53387 4.13898 8.47843L4.26574 8.51025C3.94518 9.06672 3.72938 9.82441 3.6529 10.5985L3.31558 10.54ZM2.81798 14.8377L2.98036 15.1057L2.83474 15.4393L2.75094 15.5266C2.87036 15.543 2.8976 15.4424 3.07569 15.2997C3.42139 15.849 3.94937 16.3747 4.53182 16.6734L4.2144 17.2217L3.25063 16.6139C3.14064 16.4137 3.29254 16.1837 3.1155 16.0615C2.95522 15.9506 2.74884 16.1108 2.58542 16.0625L2.13287 15.656C2.26591 15.3644 2.39371 15.079 2.65666 14.9301L2.81798 14.8377ZM1.89612 11.9158C1.93247 11.6515 1.98459 11.3896 2.0522 11.1314L2.08782 11.1283L2.22715 11.9158L2.30048 12.3264C2.51 12.8993 2.72161 13.4712 2.93322 14.042C2.42619 13.771 2.11296 13.1437 2.15801 12.2997C2.03649 12.5718 2.13706 12.9999 2.17687 13.2402C1.86574 12.9815 1.82698 12.4671 1.89612 11.9158ZM1.43309 12.1878C1.38464 12.0876 1.35416 11.9799 1.34299 11.8696C1.32807 11.721 1.32948 11.5713 1.34718 11.423L1.39328 11.3285L1.59965 11.1283L1.48337 11.8685L1.43309 12.1878ZM19.9983 14.8367L19.465 14.6355L19.9825 14.5728L19.9983 14.8367ZM5.88739 19.1488L6.02671 19.0769L5.86539 19.3407L5.88634 19.1498L5.88739 19.1488ZM1.86574 10.0688L1.63841 10.0482C1.35557 9.95685 1.09053 9.63345 1.06643 9.27411C1.49908 9.31209 1.64574 9.51333 1.85945 9.7587C1.86155 9.86137 1.86469 9.96507 1.86574 10.0688ZM1.83431 10.0472C1.86574 9.47534 1.42052 9.11805 0.842252 9.13345C0.940725 8.33058 1.65308 7.91991 2.28791 7.64989L2.41048 7.64065C2.30467 8.64886 2.38533 9.51743 2.00087 10.3901C1.71698 11.0328 0.710258 11.0205 0.764732 12.0123L0.772065 12.0944C0.915583 13.4127 2.378 13.6806 2.58018 14.8398C0.411698 15.9209 3.05474 20.4639 4.76962 17.7956C5.07761 17.8387 5.35103 17.9753 5.73339 17.8438C5.91148 17.7473 5.94605 17.6693 6.01519 17.4681L6.62802 17.7792L6.65945 17.8551C6.09795 18.2822 5.70196 18.8685 5.09856 19.2689L5.15618 19.1067L4.99904 19.0789L4.91209 19.1251L4.83352 19.4845C5.17817 19.8295 6.22261 18.582 6.5285 18.3377C6.35565 18.9301 5.92824 19.235 5.69044 19.7771L5.76377 19.851C6.21423 19.5348 6.7663 18.6395 6.85011 17.9588L7.52475 18.0687C6.67935 19.1888 4.50773 21.6528 3.36587 22.3109C3.53976 21.776 3.81632 21.3674 3.9567 20.928L3.87499 20.9342C3.85063 20.9094 3.82619 20.8848 3.80166 20.8602C3.52405 21.3962 3.06626 21.773 2.98455 22.4958C3.03336 22.5674 3.09514 22.6297 3.16683 22.6795C4.52449 22.4578 6.79144 19.1139 7.87464 18.2001C7.58132 21.0851 6.00367 21.5348 4.63553 23.2822C5.879 22.6744 6.63326 21.1241 7.69655 20.2637C7.57922 21.468 7.28695 24.161 6.55155 24.6405L6.67307 24.6313C7.49856 24.1282 7.54675 22.0594 7.82226 21.0019L7.93959 19.89L9.11811 18.2679L9.20401 18.2217C9.33601 18.6272 9.93313 19.0677 10.5795 18.9496L11.0436 18.7586L12.2085 19.1857C12.3614 20.8284 12.3028 21.7494 11.2416 22.9999C12.3258 22.4567 12.7239 20.3644 12.3625 19.2535C14.884 19.5399 14.7824 18.7063 14.3047 16.9065L14.7478 16.9137C14.6661 16.7935 14.445 16.8829 14.2764 16.7905C14.1999 16.7422 14.2146 16.7515 14.1674 16.6796C14.7667 16.0174 16.2102 16.6755 15.9064 17.7751C16.3213 16.8634 15.4046 16.0523 14.5215 16.3788C14.8986 15.9404 15.3554 15.58 15.5942 14.9999L15.6801 14.9548L17.7543 17.0903L17.8769 17.081L17.9712 16.9558C17.3112 16.1899 16.6523 15.4229 15.9944 14.656L16.206 14.5615C16.2528 14.5142 16.3102 14.4784 16.3737 14.4568C16.4372 14.4352 16.505 14.4285 16.5716 14.4373C16.5367 14.4203 16.5017 14.4032 16.4669 14.386C17.526 14.4897 18.8794 15.3552 19.9846 15.0759C20.0863 14.9024 20.0915 14.809 20.0297 14.6396C21.2072 14.6683 23.3254 14.2823 24 13.7217C22.1877 14.0944 20.147 14.2207 18.4835 14.003L17.0095 13.8336L16.9268 13.8398L17.3238 13.1416C18.539 13.119 21.7257 13.0893 22.37 12.3418L22.2275 12.155L21.6723 12.077C21.6334 12.1377 21.6117 12.2075 21.6094 12.2792L22.0494 12.3254C21.094 12.5616 18.4332 13.0595 17.5647 12.7689C17.4736 12.6601 17.5406 12.2823 17.5448 12.0102C17.5464 11.9615 17.5443 11.9128 17.5385 11.8644C18.7873 11.4989 19.7144 10.6755 20.0946 9.43324C20.3115 8.72175 20.168 7.78747 20.6373 7.34394C20.9369 7.36961 20.9976 7.49384 21.2176 7.57802C21.1014 7.41991 20.9348 7.33162 20.7263 7.25975L20.3356 7.52361C19.9784 7.65913 19.6044 7.30493 18.9978 7.5811C18.5055 7.16838 18.2278 6.51643 17.5626 6.26695L17.4945 6.15401L18.3012 5.38502C18.0372 5.60166 17.768 5.8573 17.4987 6.11397L16.9582 5.87681L16.9268 5.79981C17.5427 5.3727 18.0896 5.2146 18.7904 5.35012C18.8229 5.41377 18.8574 5.4764 18.891 5.54005C18.8585 5.59447 18.8292 5.60987 18.8009 5.62527L18.5652 5.56367C18.6668 5.62219 18.7726 5.64067 18.8784 5.65915L18.9674 5.57394L18.9811 5.45484C18.8281 5.32137 18.781 5.22486 18.4803 5.2146L18.6238 5.00721C18.2802 5.23924 17.5825 5.30084 17.241 5.50207L18.0309 4.89222L18.1252 4.76799L16.6638 5.62219C16.3516 5.60166 16.0196 5.45792 15.8509 5.28646C15.824 5.28849 15.7971 5.29054 15.7702 5.29262L17.505 4.14274L17.4767 4.02672C16.8189 4.40249 16.1599 4.77825 15.5031 5.15505L14.8725 5.0031L14.9311 4.44766L19.4535 0.9672L19.5342 0.96104L19.4703 0.808064C19.3027 0.730036 18.6144 1.27726 18.3546 1.4405C17.3531 2.06986 16.4679 2.85322 15.4832 3.422C15.8897 2.91585 16.6334 2.41175 16.757 1.67459L16.558 1.64995L16.2479 1.90867L16.5852 1.76493C16.3674 2.41483 15.3805 3.57498 14.8232 3.94253L14.7583 3.78956C15.1207 3.19203 15.478 2.38813 15.3103 1.6212L15.0065 1.44666L14.6808 1.47028C14.8892 1.55138 15.0306 1.57089 15.1836 1.67048C15.281 2.4138 14.9081 2.91687 14.7069 3.51851L14.621 3.56369C14.4869 3.32036 14.4953 3.20332 14.2198 3.15917L14.1957 3.00312L14.3843 2.75261L14.5142 2.66431C14.5582 2.74645 14.5603 2.71667 14.5739 2.85733C14.6125 2.79688 14.6339 2.72739 14.6357 2.6561L14.4817 2.58834L14.0742 3.01133C13.7337 2.78854 13.3587 2.55446 12.88 2.46719C13.1513 1.91586 13.9757 1.02983 13.5504 0.330656C13.0308 -0.519439 11.2573 0.460018 10.6078 1.13455C10.5324 1.20976 10.467 1.29392 10.4129 1.38506C10.4772 1.33495 10.5422 1.28567 10.6078 1.23722C11.2489 0.76905 12.9554 -0.35209 13.3252 0.544206C13.7128 1.0442 12.9701 2.00621 12.7679 2.39737C12.0765 2.32858 11.3536 2.2639 10.6099 2.27828C9.82701 2.28497 9.04967 2.4075 8.30415 2.64172C7.92702 2.7639 6.31794 3.70845 6.25613 3.69613L5.52283 3.00004L3.98918 2.24542L3.98079 2.32448L3.8907 2.40969L5.85596 4.04007L5.55635 4.21974C4.74762 3.61913 4.19031 3.25465 2.98664 2.94768L2.78341 2.96308C3.48634 3.4374 4.1945 3.87169 4.90162 4.30701L5.04304 4.49386C4.53811 4.70228 4.3244 5.13554 3.89804 5.40453C3.23178 5.09242 2.61475 4.80905 1.80707 4.56984L1.7505 4.73205L3.2632 5.68687L3.34491 5.68071L3.08407 5.8573C2.9636 6.25463 2.72789 6.71561 2.53095 7.27618C1.77669 7.87782 0.799302 7.84188 0.647403 9.06774C0.40646 9.13242 0.236752 9.15296 0.0167612 9.31107L0 9.4702C0.13828 9.65911 1.3629 10.1673 1.65517 10.2166L1.83536 10.0462L1.83431 10.0472ZM10.7806 1.57089L10.8927 1.59142L10.7429 1.57294C10.7167 1.57294 10.6905 1.575 10.6654 1.57602C10.7838 1.36042 11.1316 1.30703 11.4657 1.33065L11.4427 1.4867L10.789 1.51853L10.7806 1.57089ZM11.2478 1.85528L11.5621 1.75467C11.6983 1.5329 11.7758 1.29779 11.7067 1.08322C11.383 1.02059 11.1965 1.09759 10.8938 1.22284C10.8387 1.31063 10.7838 1.39859 10.7293 1.4867L10.6664 1.58937C10.6858 1.61141 10.7068 1.632 10.7293 1.65097C10.832 1.73311 10.9556 1.76185 11.1829 1.74337C11.2457 1.8481 11.1724 1.8019 11.0603 1.83064L11.2478 1.85528ZM19.0031 4.24027L18.6657 4.30187L18.8732 4.2875L19.111 4.38811L18.7506 5.03492C18.936 4.82035 19.1204 4.6684 19.199 4.34294L19.0031 4.24027ZM17.065 14.5739C16.9812 14.427 16.8901 14.3305 16.799 14.3079C16.8796 14.3829 16.9729 14.4712 17.065 14.5739ZM15.9986 17.7525L15.7325 17.9044L15.9368 17.8859L15.9986 17.7525ZM17.065 14.5739C17.3364 14.8736 17.5396 15.4486 17.4809 15.8983C17.7889 15.2463 17.438 14.8398 17.065 14.5739Z" fill="#7700FF"/>
</svg>
