<svg width="18" height="17" viewBox="0 0 18 17" fill="none" xmlns="http://www.w3.org/2000/svg">
<path d="M3.66667 1.8832C3.66642 2.38241 3.47304 2.86107 3.12905 3.21389C2.78506 3.5667 2.31865 3.76477 1.83242 3.76452C1.34619 3.76427 0.879968 3.56572 0.536323 3.21255C0.192678 2.85939 -0.000242886 2.38053 2.29498e-07 1.88132C0.000243345 1.38211 0.193631 0.903452 0.537619 0.550636C0.881608 0.19782 1.34802 -0.000249368 1.83425 2.35623e-07C2.32048 0.000249839 2.7867 0.198798 3.13034 0.551967C3.47399 0.905136 3.66691 1.384 3.66667 1.8832ZM3.72167 5.15833H0.0550002V16.9413H3.72167V5.15833ZM9.515 5.15833H5.86667V16.9413H9.47833V10.7581C9.47833 7.31352 13.8508 6.99354 13.8508 10.7581V16.9413H17.4717V9.47812C17.4717 3.67135 11 3.88781 9.47833 6.73943L9.515 5.15833Z" fill="#7700FF"/>
</svg>
