<svg width="25" height="19" viewBox="0 0 25 19" fill="none" xmlns="http://www.w3.org/2000/svg">
<path d="M9.69668 13.2003L15.9247 9.24019L9.69668 5.28011V13.2003ZM23.5687 2.86446C23.7247 3.48487 23.8327 4.31649 23.9047 5.37251C23.9887 6.42853 24.0247 7.33935 24.0247 8.13136L24.0967 9.24019C24.0967 12.131 23.9047 14.2563 23.5687 15.6159C23.2687 16.8039 22.5727 17.5696 21.4927 17.8996C20.9287 18.0712 19.8967 18.19 18.3127 18.2692C16.7527 18.3616 15.3247 18.4012 14.0047 18.4012L12.0967 18.4804C7.06868 18.4804 3.93668 18.2692 2.70068 17.8996C1.62068 17.5696 0.92468 16.8039 0.62468 15.6159C0.46868 14.9955 0.36068 14.1639 0.28868 13.1079C0.20468 12.0518 0.16868 11.141 0.16868 10.349L0.0966797 9.24019C0.0966797 6.34933 0.28868 4.22409 0.62468 2.86446C0.92468 1.67643 1.62068 0.910818 2.70068 0.580812C3.26468 0.409208 4.29668 0.290406 5.88068 0.211204C7.44068 0.118802 8.86868 0.0792015 10.1887 0.0792015L12.0967 0C17.1247 0 20.2567 0.211204 21.4927 0.580812C22.5727 0.910818 23.2687 1.67643 23.5687 2.86446Z" fill="#7700FF"/>
</svg>
