<svg width="24" height="22" viewBox="0 0 24 22" fill="none" xmlns="http://www.w3.org/2000/svg">
<path fill-rule="evenodd" clip-rule="evenodd" d="M20.0433 19.904V19.9016L20.0645 19.8509L23.6048 2.00185V1.94518C23.6048 1.50014 23.4396 1.11176 23.0831 0.879201C22.7702 0.674977 22.4102 0.660811 22.1576 0.679699C21.9224 0.700966 21.6904 0.748482 21.4658 0.821357C21.37 0.852233 21.2755 0.886888 21.1825 0.925241L21.1671 0.931143L1.42932 8.67398L1.42342 8.67634C1.36341 8.69683 1.30468 8.72088 1.24753 8.74835C1.10715 8.81142 0.972472 8.88646 0.844979 8.97265C0.591173 9.14736 0.108352 9.55817 0.189806 10.2098C0.257094 10.7505 0.628949 11.0928 0.880393 11.2711C1.02881 11.3751 1.18838 11.4622 1.35613 11.5308L1.39391 11.5473L1.40571 11.5508L1.41397 11.5544L4.86809 12.7172C4.85629 12.9332 4.87753 13.1539 4.93538 13.3723L6.6648 19.9347C6.75927 20.2924 6.96342 20.6115 7.24858 20.8473C7.53373 21.083 7.88556 21.2235 8.25465 21.249C8.62375 21.2745 8.99157 21.1838 9.30646 20.9896C9.62135 20.7953 9.86749 20.5074 10.0103 20.1661L12.7113 17.2786L17.3494 20.8342L17.4155 20.8625C17.837 21.0467 18.2301 21.1045 18.5901 21.0562C18.9502 21.0066 19.2358 20.8555 19.4507 20.6843C19.6992 20.4828 19.8973 20.2261 20.0291 19.9347L20.0386 19.9146L20.0421 19.9075L20.0433 19.904ZM6.64709 12.9214C6.62794 12.8486 6.63249 12.7715 6.66009 12.7015C6.68768 12.6314 6.73689 12.572 6.80055 12.5318L18.5122 5.09473C18.5122 5.09473 19.2016 4.67566 19.1768 5.09473C19.1768 5.09473 19.2996 5.16792 18.9301 5.51145C18.5807 5.83844 10.5828 13.56 9.77303 14.3415C9.728 14.3852 9.69646 14.441 9.68213 14.5021L8.37651 19.4837L6.64709 12.9214Z" fill="#212025"/>
</svg>
