<svg width="18" height="20" viewBox="0 0 18 20" fill="none" xmlns="http://www.w3.org/2000/svg">
<path d="M16.8383 9.49152C16.9051 9.55827 16.9581 9.63754 16.9943 9.7248C17.0305 9.81205 17.0491 9.90558 17.0491 10C17.0491 10.0945 17.0305 10.188 16.9943 10.2753C16.9581 10.3625 16.9051 10.4418 16.8383 10.5086L9.46659 17.8757C8.52288 18.8193 7.24298 19.3494 5.90846 19.3493C4.57394 19.3492 3.29411 18.819 2.35052 17.8753C1.40693 16.9316 0.876869 15.6517 0.876953 14.3172C0.877037 12.9826 1.40726 11.7028 2.35096 10.7592L11.2689 1.71015C11.9426 1.0357 12.8567 0.656512 13.81 0.656006C14.7633 0.655501 15.6778 1.03372 16.3522 1.70746C17.0267 2.38119 17.4059 3.29526 17.4064 4.24858C17.4069 5.20189 17.0286 6.11636 16.3549 6.79082L7.43522 15.8399C7.03015 16.245 6.48074 16.4725 5.90788 16.4725C5.33501 16.4725 4.78561 16.245 4.38054 15.8399C3.97546 15.4348 3.74789 14.8854 3.74789 14.3125C3.74789 13.7397 3.97546 13.1903 4.38054 12.7852L11.8645 5.18261C11.9301 5.11268 12.009 5.05656 12.0965 5.01757C12.1841 4.97858 12.2786 4.9575 12.3744 4.95557C12.4703 4.95364 12.5655 4.9709 12.6546 5.00634C12.7437 5.04177 12.8248 5.09467 12.8931 5.16191C12.9614 5.22915 13.0156 5.30938 13.0524 5.39787C13.0893 5.48637 13.108 5.58134 13.1076 5.6772C13.1072 5.77306 13.0877 5.86787 13.0501 5.95605C13.0125 6.04423 12.9576 6.124 12.8887 6.19066L5.40386 13.8013C5.33684 13.8678 5.28358 13.9468 5.2471 14.0339C5.21063 14.121 5.19167 14.2144 5.19129 14.3088C5.19092 14.4032 5.20914 14.4967 5.24492 14.5841C5.28069 14.6714 5.33333 14.7509 5.39981 14.8179C5.4663 14.8849 5.54533 14.9382 5.6324 14.9747C5.71947 15.0111 5.81287 15.0301 5.90727 15.0305C6.00166 15.0308 6.09521 15.0126 6.18257 14.9768C6.26993 14.9411 6.34938 14.8884 6.41639 14.8219L15.3352 5.77738C15.7403 5.37314 15.9682 4.82453 15.9688 4.25226C15.9693 3.67998 15.7426 3.13091 15.3383 2.72584C14.9341 2.32076 14.3855 2.09286 13.8132 2.09227C13.2409 2.09168 12.6919 2.31845 12.2868 2.72269L3.37069 11.7682C3.03668 12.1016 2.77162 12.4977 2.59065 12.9336C2.40968 13.3695 2.31634 13.8368 2.31596 14.3088C2.31559 14.7808 2.40818 15.2482 2.58846 15.6844C2.76874 16.1206 3.03317 16.5171 3.36665 16.8511C3.70013 17.1851 4.09614 17.4501 4.53206 17.6311C4.96798 17.8121 5.43527 17.9054 5.90727 17.9058C6.37926 17.9062 6.8467 17.8136 7.28291 17.6333C7.71912 17.453 8.11554 17.1886 8.44956 16.8551L15.8221 9.48793C15.9574 9.35371 16.1404 9.2787 16.3309 9.27937C16.5215 9.28004 16.704 9.35635 16.8383 9.49152Z" fill="#F7F7F7"/>
</svg>
