<svg width="22" height="22" viewBox="0 0 22 22" fill="none" xmlns="http://www.w3.org/2000/svg">
<path d="M17.052 0.997966C16.5424 1.0517 16.1335 1.15602 15.6586 1.36149C14.5042 1.86093 13.5071 2.942 13.0762 4.17165C12.4377 5.9924 13.0667 8.16087 14.5923 9.39684C15.7215 10.3104 17.2124 10.6454 18.6781 10.3104C19.2978 10.1713 19.9206 9.87732 20.3892 9.50115C20.5968 9.33678 21.1945 8.72354 21.2479 8.62239C21.2794 8.56549 21.2416 8.52755 20.8831 8.25254C20.6597 8.08185 20.3924 7.87638 20.2886 7.79103L20.0936 7.6393L19.8797 7.86374C18.9958 8.7836 17.766 9.11551 16.6116 8.7425C15.8945 8.51175 15.2843 7.98702 14.9131 7.28211C14.2305 5.98924 14.4665 4.33918 15.4761 3.32133C15.9511 2.84717 16.5361 2.5532 17.2218 2.45204C18.1529 2.31612 19.4519 2.70176 19.4582 3.1127C19.4613 3.16011 19.4645 3.48254 19.4676 3.83025L19.4739 4.46246L20.232 4.47194L20.9932 4.47827L21.0152 3.90296C21.0403 3.14747 20.9994 2.38882 20.924 2.22445C20.7981 1.96524 19.952 1.46264 19.2726 1.24137C19.0776 1.17815 18.7568 1.09912 18.5555 1.06435C18.1434 0.991644 17.4231 0.963195 17.052 0.997966Z" fill="#212025"/>
<path d="M2.49492 1.21302C2.48234 1.2225 2.4729 1.57338 2.4729 1.98747V2.7398H3.19949H3.92922L4.02673 2.84411C4.0802 2.90417 4.15883 3.04326 4.19972 3.1697C4.24062 3.28982 4.75017 4.71861 5.32892 6.34338C5.90768 7.96815 6.42038 9.44752 6.47385 9.63086C6.58708 10.0418 6.6783 10.203 6.83557 10.282C6.93937 10.3358 7.02115 10.3421 7.48667 10.3358C8.07171 10.3294 8.16607 10.3105 8.25729 10.1556C8.28874 10.1019 8.424 9.76678 8.55296 9.40959C9.16946 7.72159 10.8806 3.11912 10.9403 2.9832C11.0473 2.74928 11.0787 2.7398 11.8305 2.7398H12.4753V1.96535V1.19089H11.2486C9.90863 1.19089 9.88661 1.19405 9.80483 1.37107C9.78281 1.41849 9.46198 2.34151 9.09397 3.41942C7.5653 7.89229 7.57788 7.8512 7.55272 7.82275C7.54643 7.81642 7.07777 6.46034 6.51474 4.81028C5.94857 3.15706 5.45788 1.72511 5.42329 1.62711C5.33836 1.37423 5.24085 1.24147 5.13076 1.21934C5.00495 1.19089 2.52008 1.18457 2.49492 1.21302Z" fill="#212025"/>
<path d="M8.56232 12.2545C7.56523 12.4125 6.75372 12.9246 6.19384 13.7433L6.04286 13.9677L6.02398 13.8318C6.0114 13.756 5.98624 13.3766 5.96422 12.9878L5.92333 12.2861H4.52677H3.13336V12.9657V13.6453H3.8568H4.58025V16.6957V19.7461H3.8568H3.13336V20.4732V21.2002H6.56185H9.99033V20.4732V19.7461H8.08422H6.18125L6.19069 17.8274C6.20327 15.9592 6.20642 15.8991 6.27247 15.6526C6.42345 15.1089 6.67508 14.7011 7.11229 14.2838C7.52749 13.8887 8.07164 13.6485 8.55289 13.6453H8.70072V14.3091V14.973H9.45562H10.2105V13.6327C10.2105 12.6148 10.2011 12.2829 10.1728 12.2671C10.1161 12.2292 8.77621 12.2229 8.56232 12.2545Z" fill="#212025"/>
<path d="M11.9312 12.2766C11.9186 12.2861 11.9092 12.637 11.9092 13.0511V13.8034H12.5855H13.2617V16.0383C13.2617 17.4702 13.2743 18.3774 13.2963 18.5608C13.4788 20.0654 14.2714 21.0138 15.6491 21.3804C15.9102 21.45 16.0202 21.4626 16.47 21.4658C16.9198 21.4689 17.0236 21.4595 17.2501 21.3962C17.9484 21.2066 18.4768 20.8209 18.9769 20.1445C19.1153 19.9548 19.2128 19.8505 19.2223 19.8758C19.2286 19.9011 19.2726 20.1761 19.3166 20.4859C19.4016 21.077 19.4204 21.1465 19.5211 21.2003C19.5588 21.2192 20.0023 21.2319 20.7132 21.2319H21.8487V20.4732V19.7146H21.251H20.6534L20.6471 15.9909L20.6377 12.2703H19.065H17.4923V13.029V13.7876L18.2346 13.7971L18.9801 13.8034L18.9989 13.9014C19.0304 14.0626 19.021 17.132 18.9864 17.6093C18.9486 18.1151 18.848 18.4723 18.6404 18.8263C18.2598 19.4743 17.6055 19.9042 16.8475 20.0022C15.8944 20.1255 15.1836 19.5755 14.954 18.5292C14.8879 18.2194 14.8848 18.1688 14.8753 15.3049C14.869 13.7054 14.8596 12.3652 14.8502 12.3241L14.8344 12.2545H13.3907C12.5981 12.2545 11.9407 12.264 11.9312 12.2766Z" fill="#212025"/>
<path d="M0.041488 19.705C0.0289064 19.7145 0.0194702 20.0654 0.0194702 20.4795V21.2318H0.790093H1.56072V20.4574V19.6829H0.812111C0.400064 19.6829 0.0509242 19.6924 0.041488 19.705Z" fill="#212025"/>
</svg>
