<svg width="40" height="40" viewBox="0 0 40 40" fill="none" xmlns="http://www.w3.org/2000/svg">
<rect y="40" width="40" height="40" rx="20" transform="rotate(-90 0 40)" fill="#F7F7F7"/>
<path d="M14.6967 29.5369C14.4155 29.2556 14.2576 28.8741 14.2576 28.4764C14.2576 28.0786 14.4155 27.6972 14.6967 27.4159L22.1217 19.9909L14.6967 12.5659C14.4235 12.283 14.2723 11.9041 14.2757 11.5108C14.2792 11.1175 14.4369 10.7413 14.715 10.4632C14.9931 10.1851 15.3694 10.0273 15.7626 10.0239C16.1559 10.0205 16.5348 10.1717 16.8177 10.4449L25.3032 18.9304C25.5845 19.2117 25.7424 19.5931 25.7424 19.9909C25.7424 20.3886 25.5845 20.7701 25.3032 21.0514L16.8177 29.5369C16.5365 29.8181 16.155 29.9761 15.7572 29.9761C15.3595 29.9761 14.978 29.8181 14.6967 29.5369Z" fill="#8424DE"/>
</svg>
