<svg width="40" height="40" viewBox="0 0 40 40" fill="none" xmlns="http://www.w3.org/2000/svg">
<rect x="40" width="40" height="40" rx="20" transform="rotate(90 40 0)" fill="#F7F7F7"/>
<path d="M25.3033 10.4631C25.5845 10.7444 25.7424 11.1259 25.7424 11.5236C25.7424 11.9214 25.5845 12.3028 25.3033 12.5841L17.8783 20.0091L25.3033 27.4341C25.5765 27.717 25.7277 28.0959 25.7243 28.4892C25.7208 28.8825 25.5631 29.2587 25.285 29.5368C25.0069 29.8149 24.6306 29.9727 24.2374 29.9761C23.8441 29.9795 23.4652 29.8283 23.1823 29.5551L14.6968 21.0696C14.4155 20.7883 14.2576 20.4069 14.2576 20.0091C14.2576 19.6114 14.4155 19.2299 14.6968 18.9486L23.1823 10.4631C23.4635 10.1819 23.845 10.0239 24.2428 10.0239C24.6405 10.0239 25.022 10.1819 25.3033 10.4631Z" fill="#8424DE"/>
</svg>
