<svg width="20" height="14" viewBox="0 0 20 14" fill="none" xmlns="http://www.w3.org/2000/svg">
<path d="M10.0189 3.24737C7.95818 3.24737 6.28685 4.9187 6.28685 6.9794C6.28685 9.04011 7.95818 10.7114 10.0189 10.7114C12.0796 10.7114 13.7509 9.04073 13.7509 6.9794C13.7509 4.91807 12.0802 3.24737 10.0189 3.24737ZM10.0189 9.46742C8.64674 9.46742 7.50225 8.32418 7.50225 6.95203C7.50225 5.57989 8.61813 4.46401 9.99027 4.46401C11.3624 4.46401 12.4783 5.57989 12.4783 6.95203C12.4783 8.32418 11.391 9.46742 10.0189 9.46742ZM19.8976 6.80773C19.8901 6.77663 19.8938 6.74304 19.8845 6.71256C19.8808 6.6995 19.8721 6.69203 19.8677 6.68084C19.8609 6.66342 19.8627 6.64227 19.8534 6.62548C18.044 2.48292 14.1453 0.0993958 9.99027 0.0993958C5.83528 0.0993958 1.85817 2.47919 0.0481364 6.62175C0.0406723 6.63916 0.0419164 6.6572 0.0350743 6.67711C0.0307202 6.68955 0.0220122 6.69577 0.0176581 6.70758C0.00832804 6.73869 0.0120601 6.77165 0.00584002 6.80337C-0.00535608 6.85935 -0.0159302 6.91409 -0.0159302 6.97069C-0.0159302 7.0273 -0.00535608 7.08079 0.00584002 7.13739C0.0120601 7.16849 0.00770604 7.2027 0.0176581 7.23194C0.0213902 7.24624 0.0307202 7.25184 0.0350743 7.26428C0.0412943 7.28107 0.0400503 7.30222 0.0481364 7.31964C1.85817 11.461 5.79671 13.8059 9.95171 13.8059C14.1067 13.8059 18.0446 11.4659 19.854 7.32337C19.8634 7.30533 19.8615 7.28729 19.8683 7.26739C19.8727 7.25682 19.8808 7.24873 19.8845 7.23629C19.8938 7.20581 19.8914 7.17284 19.8976 7.1405C19.9088 7.08452 19.9187 7.03041 19.9187 6.97256C19.9187 6.91782 19.9082 6.86371 19.897 6.80711L19.8976 6.80773ZM9.95171 12.5619C6.42805 12.5619 2.95912 10.7046 1.25483 6.97007C2.94295 3.24861 6.4579 1.34279 9.99027 1.34279C13.522 1.34279 16.9586 3.25048 18.6473 6.9738C16.9598 10.6946 13.4847 12.5619 9.95171 12.5619Z" fill="#545454"/>
</svg>
