<svg width="32" height="37" viewBox="0 0 32 37" fill="none" xmlns="http://www.w3.org/2000/svg">
<path d="M20.3833 25.6853V30.0419C20.3833 30.9641 20.1026 31.4252 19.5412 31.4252C19.2101 31.4252 18.8862 31.2738 18.5695 30.971V24.7561C18.8862 24.4533 19.2101 24.3019 19.5412 24.3019C20.1026 24.3019 20.3833 24.763 20.3833 25.6853ZM27.6815 25.7059V26.6557H25.7382V25.7059C25.7382 24.7699 26.0621 24.3019 26.7099 24.3019C27.3576 24.3019 27.6815 24.7699 27.6815 25.7059ZM6.82321 21.2048H9.1336V19.264H2.39676V21.2048H4.66397V32.9531H6.82321V21.2048ZM13.0418 32.9531H14.9636V22.7533H13.0418V30.558C12.61 31.1362 12.1997 31.4252 11.8111 31.4252C11.552 31.4252 11.4008 31.2807 11.3576 30.9916C11.3432 30.9503 11.336 30.7094 11.336 30.269V22.7533H9.4143V30.8265C9.4143 31.5009 9.47188 32.0033 9.58704 32.3337C9.75978 32.843 10.1772 33.0977 10.8394 33.0977C11.5304 33.0977 12.2645 32.6778 13.0418 31.8382V32.9531ZM22.305 29.8973V25.8298C22.305 24.825 22.2402 24.1436 22.1107 23.7857C21.8659 23.0149 21.3549 22.6295 20.5776 22.6295C19.8578 22.6295 19.1885 23.0011 18.5695 23.7444V19.264H16.6478V32.9531H18.5695V31.9621C19.2173 32.7191 19.8866 33.0977 20.5776 33.0977C21.3549 33.0977 21.8659 32.7191 22.1107 31.9621C22.2402 31.5904 22.305 30.9022 22.305 29.8973ZM29.6032 29.6908V29.4224H27.6383C27.6383 30.1244 27.6239 30.5443 27.5951 30.6819C27.4944 31.1775 27.2065 31.4252 26.7314 31.4252C26.0693 31.4252 25.7382 30.9503 25.7382 30.0006V28.2042H29.6032V26.0776C29.6032 24.9901 29.4089 24.1918 29.0202 23.6825C28.4588 22.9805 27.6959 22.6295 26.7314 22.6295C25.7526 22.6295 24.9825 22.9805 24.4211 23.6825C24.018 24.1918 23.8165 24.9901 23.8165 26.0776V29.6496C23.8165 30.737 24.0252 31.5353 24.4426 32.0446C25.004 32.7467 25.7814 33.0977 26.7746 33.0977C27.8111 33.0977 28.5884 32.7329 29.1066 32.0033C29.3657 31.6317 29.5169 31.26 29.5601 30.8884C29.5888 30.7645 29.6032 30.3653 29.6032 29.6908ZM16.475 10.8398V6.50391C16.475 5.55413 16.1655 5.07924 15.5466 5.07924C14.9276 5.07924 14.6181 5.55413 14.6181 6.50391V10.8398C14.6181 11.8034 14.9276 12.2852 15.5466 12.2852C16.1655 12.2852 16.475 11.8034 16.475 10.8398ZM32 26.346C32 29.567 31.8129 31.9758 31.4386 33.5725C31.2371 34.3847 30.8196 35.066 30.1862 35.6166C29.5529 36.1672 28.8187 36.4838 27.9838 36.5664C25.3351 36.8555 21.3405 37 16 37C10.6595 37 6.66487 36.8555 4.01619 36.5664C3.18129 36.4838 2.44354 36.1672 1.80297 35.6166C1.16239 35.066 0.748538 34.3847 0.561404 33.5725C0.187134 32.0309 0 29.622 0 26.346C0 23.125 0.187134 20.7161 0.561404 19.1194C0.762933 18.3073 1.18039 17.6259 1.81377 17.0753C2.44714 16.5247 3.18848 16.2013 4.03779 16.1049C6.67206 15.8296 10.6595 15.692 16 15.692C21.3405 15.692 25.3351 15.8296 27.9838 16.1049C28.8187 16.2013 29.5565 16.5247 30.197 17.0753C30.8376 17.6259 31.2515 18.3073 31.4386 19.1194C31.8129 20.6611 32 23.0699 32 26.346ZM10.4507 0H12.6532L10.0405 8.23828V13.8337H7.88124V8.23828C7.67971 7.21968 7.24067 5.7606 6.5641 3.86105C6.03149 2.44327 5.56365 1.15625 5.16059 0H7.44939L8.98246 5.43025L10.4507 0ZM18.4399 6.87556V10.4888C18.4399 11.6038 18.2384 12.4159 17.8354 12.9252C17.2883 13.6272 16.5254 13.9782 15.5466 13.9782C14.5821 13.9782 13.8264 13.6272 13.2794 12.9252C12.8763 12.4022 12.6748 11.59 12.6748 10.4888V6.87556C12.6748 5.77437 12.8763 4.96912 13.2794 4.45982C13.8264 3.75781 14.5821 3.40681 15.5466 3.40681C16.5254 3.40681 17.2883 3.75781 17.8354 4.45982C18.2384 4.96912 18.4399 5.77437 18.4399 6.87556ZM25.6734 3.53069V13.8337H23.7085V12.6981C22.9456 13.5515 22.2042 13.9782 21.4845 13.9782C20.8223 13.9782 20.3977 13.7236 20.2105 13.2143C20.0954 12.8839 20.0378 12.3677 20.0378 11.6657V3.53069H22.0027V11.1083C22.0027 11.5625 22.0099 11.8034 22.0243 11.8309C22.0675 12.1337 22.2186 12.2852 22.4777 12.2852C22.8664 12.2852 23.2767 11.9892 23.7085 11.3973V3.53069H25.6734Z" fill="#212025"/>
</svg>
