<svg width="25" height="18" viewBox="0 0 25 18" fill="none" xmlns="http://www.w3.org/2000/svg">
<path d="M23.8819 2.88509C23.7441 2.37174 23.4738 1.90358 23.0982 1.52749C22.7226 1.1514 22.2547 0.880553 21.7416 0.742066C19.8526 0.234009 12.2804 0.234009 12.2804 0.234009C12.2804 0.234009 4.70814 0.234009 2.81914 0.739363C2.30574 0.877401 1.83769 1.14809 1.462 1.52426C1.08631 1.90042 0.816206 2.36881 0.678816 2.88239C0.173462 4.77409 0.173462 8.71964 0.173462 8.71964C0.173462 8.71964 0.173462 12.6652 0.678816 14.5542C0.957167 15.5973 1.77871 16.4189 2.81914 16.6972C4.70814 17.2053 12.2804 17.2053 12.2804 17.2053C12.2804 17.2053 19.8526 17.2053 21.7416 16.6972C22.7847 16.4189 23.6035 15.5973 23.8819 14.5542C24.3872 12.6652 24.3872 8.71964 24.3872 8.71964C24.3872 8.71964 24.3872 4.77409 23.8819 2.88509ZM9.87519 12.3409V5.09839L16.1448 8.69262L9.87519 12.3409Z" fill="#212025"/>
</svg>
